<svg width="14" height="14" viewBox="0 0 14 14" fill="none" xmlns="http://www.w3.org/2000/svg">
<path d="M0.638596 11.9499C0.248072 12.3404 0.248072 12.9736 0.638596 13.3641C1.02912 13.7546 1.66229 13.7546 2.05281 13.3641L0.638596 11.9499ZM13.6594 1.34327C13.6594 0.79099 13.2117 0.343275 12.6594 0.343275L3.65941 0.343275C3.10713 0.343275 2.65941 0.79099 2.65941 1.34328C2.65941 1.89556 3.10713 2.34327 3.65941 2.34328L11.6594 2.34327L11.6594 10.3433C11.6594 10.8956 12.1071 11.3433 12.6594 11.3433C13.2117 11.3433 13.6594 10.8956 13.6594 10.3433L13.6594 1.34327ZM2.05281 13.3641L13.3665 2.05038L11.9523 0.636168L0.638596 11.9499L2.05281 13.3641Z" fill="#051424"/>
</svg>
