<svg width="40" height="41" viewBox="0 0 40 41" fill="none" xmlns="http://www.w3.org/2000/svg">
<g clip-path="url(#clip0_752_629)">
<circle cx="20" cy="20.5371" r="20" fill="#279EFF" fill-opacity="0.1"/>
<path d="M14.62 19.3271C16.06 22.1571 18.38 24.4671 21.21 25.9171L23.41 23.7171C23.68 23.4471 24.08 23.3571 24.43 23.4771C25.55 23.8471 26.76 24.0471 28 24.0471C28.55 24.0471 29 24.4971 29 25.0471V28.5371C29 29.0871 28.55 29.5371 28 29.5371C18.61 29.5371 11 21.9271 11 12.5371C11 11.9871 11.45 11.5371 12 11.5371H15.5C16.05 11.5371 16.5 11.9871 16.5 12.5371C16.5 13.7871 16.7 14.9871 17.07 16.1071C17.18 16.4571 17.1 16.8471 16.82 17.1271L14.62 19.3271Z" fill="#0583EA"/>
</g>
<defs>
<clipPath id="clip0_752_629">
<rect width="40" height="40" fill="white" transform="translate(0 0.537109)"/>
</clipPath>
</defs>
</svg>
