<svg width="157" height="81" viewBox="0 0 157 81" fill="none" xmlns="http://www.w3.org/2000/svg">
<g clip-path="url(#clip0_794_138)">
<path d="M24.3625 46.6053V23.1409H29.0349V46.6053H24.3625ZM16.723 26.7561V22.6294H36.6745V26.7561H16.723ZM43.8976 46.9463C42.2378 46.9463 40.7372 46.5712 39.3957 45.8209C38.077 45.0478 37.0197 44.0133 36.2239 42.7173C35.4509 41.3986 35.0643 39.932 35.0643 38.3177C35.0643 36.7034 35.4509 35.2596 36.2239 33.9864C36.997 32.6904 38.0542 31.6672 39.3957 30.9169C40.7372 30.1439 42.2264 29.7573 43.8635 29.7573C45.546 29.7573 47.0466 30.1439 48.3653 30.9169C49.7068 31.6672 50.7641 32.6904 51.5371 33.9864C52.3102 35.2596 52.6967 36.7034 52.6967 38.3177C52.6967 39.932 52.3102 41.3986 51.5371 42.7173C50.7641 44.0133 49.7068 45.0478 48.3653 45.8209C47.0466 46.5712 45.5574 46.9463 43.8976 46.9463ZM43.8635 42.7855C44.7047 42.7855 45.4437 42.6036 46.0803 42.2398C46.7397 41.8533 47.2399 41.3304 47.5809 40.671C47.9447 39.9889 48.1266 39.2158 48.1266 38.3518C48.1266 37.4878 47.9447 36.7262 47.5809 36.0668C47.2171 35.4074 46.7169 34.8959 46.0803 34.5321C45.4437 34.1455 44.7047 33.9523 43.8635 33.9523C43.0449 33.9523 42.3174 34.1455 41.6807 34.5321C41.0441 34.8959 40.5439 35.4074 40.1801 36.0668C39.8163 36.7262 39.6344 37.4878 39.6344 38.3518C39.6344 39.2158 39.8163 39.9889 40.1801 40.671C40.5439 41.3304 41.0441 41.8533 41.6807 42.2398C42.3174 42.6036 43.0449 42.7855 43.8635 42.7855ZM65.5658 46.9463C64.3835 46.9463 63.3149 46.7076 62.3599 46.2301C61.405 45.7299 60.6433 45.0592 60.0749 44.2179C59.5064 43.3767 59.1995 42.4104 59.154 41.319V35.487C59.1995 34.3956 59.5064 33.4293 60.0749 32.5881C60.666 31.7241 61.4277 31.042 62.3599 30.5418C63.3149 30.0416 64.3835 29.7915 65.5658 29.7915C67.0892 29.7915 68.4534 30.1666 69.6584 30.9169C70.8635 31.6672 71.807 32.6904 72.4891 33.9864C73.194 35.2824 73.5464 36.7489 73.5464 38.3859C73.5464 40.0003 73.194 41.4554 72.4891 42.7514C71.807 44.0474 70.8635 45.0706 69.6584 45.8209C68.4534 46.5712 67.0892 46.9463 65.5658 46.9463ZM64.7814 42.8196C65.5999 42.8196 66.3275 42.6377 66.9641 42.2739C67.6007 41.8874 68.0896 41.3645 68.4306 40.7051C68.7944 40.023 68.9763 39.2386 68.9763 38.3518C68.9763 37.4878 68.7944 36.7262 68.4306 36.0668C68.0896 35.3847 67.6007 34.8617 66.9641 34.498C66.3275 34.1114 65.5999 33.9182 64.7814 33.9182C63.9856 33.9182 63.2694 34.1114 62.6328 34.498C61.9961 34.8617 61.4959 35.3847 61.1321 36.0668C60.7911 36.7262 60.6205 37.4878 60.6205 38.3518C60.6205 39.2386 60.7911 40.023 61.1321 40.7051C61.4959 41.3645 61.9848 41.8874 62.5986 42.2739C63.2353 42.6377 63.9629 42.8196 64.7814 42.8196ZM56.4256 53.4945V30.1325H60.8934V34.4639L60.1431 38.4542L60.8593 42.4445V53.4945H56.4256ZM98.2348 46.6053V23.1409H102.907V46.6053H98.2348ZM90.5952 26.7561V22.6294H110.547V26.7561H90.5952ZM114.125 46.6053V30.1325H118.626V46.6053H114.125ZM116.376 27.4723C115.648 27.4723 115.045 27.2336 114.568 26.7561C114.09 26.2559 113.852 25.642 113.852 24.9144C113.852 24.2096 114.09 23.6071 114.568 23.1068C115.045 22.6066 115.648 22.3565 116.376 22.3565C117.126 22.3565 117.728 22.6066 118.183 23.1068C118.661 23.6071 118.899 24.2096 118.899 24.9144C118.899 25.642 118.661 26.2559 118.183 26.7561C117.728 27.2336 117.126 27.4723 116.376 27.4723ZM131.315 46.9463C129.587 46.9463 128.052 46.5825 126.711 45.855C125.37 45.1047 124.301 44.0815 123.505 42.7855C122.732 41.4895 122.346 40.0116 122.346 38.3518C122.346 36.7148 122.721 35.2596 123.471 33.9864C124.244 32.6904 125.29 31.6672 126.609 30.9169C127.927 30.1439 129.394 29.7573 131.008 29.7573C132.6 29.7573 133.998 30.1211 135.203 30.8487C136.431 31.5535 137.386 32.5312 138.068 33.7818C138.773 35.0095 139.125 36.4078 139.125 37.9767C139.125 38.2723 139.103 38.5792 139.057 38.8975C139.034 39.1931 138.977 39.5342 138.887 39.9207L125.04 39.9548V36.6125L136.806 36.5784L134.999 37.9767C134.953 36.999 134.771 36.1805 134.453 35.5211C134.157 34.8617 133.714 34.3615 133.123 34.0205C132.554 33.6567 131.849 33.4748 131.008 33.4748C130.121 33.4748 129.348 33.6794 128.689 34.0887C128.03 34.4752 127.518 35.0323 127.154 35.7599C126.813 36.4647 126.643 37.306 126.643 38.2836C126.643 39.284 126.825 40.1594 127.188 40.9097C127.575 41.6373 128.121 42.2057 128.826 42.615C129.53 43.0015 130.349 43.1948 131.281 43.1948C132.122 43.1948 132.884 43.0584 133.566 42.7855C134.248 42.4899 134.839 42.0579 135.34 41.4895L137.966 44.1156C137.17 45.0478 136.192 45.7527 135.033 46.2301C133.896 46.7076 132.657 46.9463 131.315 46.9463ZM142.741 46.6053V30.1325H147.209V46.6053H142.741ZM147.209 37.4992L145.469 36.3396C145.674 34.3161 146.265 32.7245 147.243 31.5649C148.22 30.3826 149.63 29.7915 151.472 29.7915C152.268 29.7915 152.984 29.9279 153.62 30.2007C154.257 30.4508 154.837 30.8714 155.36 31.4626L152.563 34.6685C152.313 34.3956 152.006 34.191 151.642 34.0546C151.301 33.9182 150.903 33.85 150.449 33.85C149.494 33.85 148.709 34.1569 148.095 34.7708C147.504 35.362 147.209 36.2714 147.209 37.4992Z" fill="#0583EA"/>
<rect x="3.18555" y="42.9164" width="4.1749" height="0.426314" fill="white"/>
<rect width="4.17247" height="0.426314" transform="matrix(0.960108 0.279631 -0.28543 0.9584 4.35352 34.6691)" fill="white"/>
<rect width="4.17442" height="0.426314" transform="matrix(0.992242 0.124318 -0.127078 0.991893 3.37305 40.1111)" fill="white"/>
<rect width="7.73054" height="0.426314" transform="matrix(0.949748 0.313017 -0.319365 0.947632 5.14844 32.0234)" fill="white"/>
<rect width="4.17359" height="0.426314" transform="matrix(0.978718 0.205212 -0.209639 0.977779 3.78516 37.2371)" fill="white"/>
<rect width="4.17019" height="0.426314" transform="matrix(0.920833 0.389957 -0.397378 0.917655 6.20898 29.3103)" fill="white"/>
<rect width="4.16822" height="0.426314" transform="matrix(0.885506 0.464628 -0.472786 0.881177 7.58594 26.6445)" fill="white"/>
<rect width="4.16799" height="0.426314" transform="matrix(0.881394 0.472382 -0.480597 0.876942 8.81055 24.5538)" fill="white"/>
<rect width="4.15202" height="0.426314" transform="matrix(0.504323 0.863515 -0.868347 0.495957 25.5801 8.89795)" fill="white"/>
<rect width="8.4314" height="0.425208" transform="matrix(0.236977 0.968804 -0.975092 0.233254 33.0684 5.93097)" fill="white"/>
<rect width="4.15399" height="0.425804" transform="matrix(0.390536 0.919271 -0.924578 0.384125 27.8145 7.81274)" fill="white"/>
<rect width="4.15771" height="0.42509" transform="matrix(0.202251 0.976357 -0.982915 0.199118 35.7852 5.28912)" fill="white"/>
<rect width="4.15549" height="0.425485" transform="matrix(0.312166 0.947951 -0.953713 0.307135 30.5391 6.72888)" fill="white"/>
<rect width="4.15941" height="0.424837" transform="matrix(0.119758 0.989262 -0.996517 0.117975 38.6914 4.84021)" fill="white"/>
<rect width="4.16112" height="0.424624" transform="matrix(0.0361851 0.995322 -1.00335 0.0356721 41.7129 4.40094)" fill="white"/>
<rect width="4.1613" height="0.424604" transform="matrix(0.0272941 0.995558 -1.00367 0.0269094 44.1582 4.40094)" fill="white"/>
<rect width="4.15213" height="0.426314" transform="matrix(-0.507747 0.861506 -0.866393 -0.499363 66.6504 10.9954)" fill="white"/>
<rect width="4.14959" height="0.427435" transform="matrix(-0.73286 0.684251 -0.688737 -0.721391 73.2676 16.1467)" fill="white"/>
<rect width="4.15064" height="0.426828" transform="matrix(-0.613165 0.791493 -0.796121 -0.603145 69.0078 12.5677)" fill="white"/>
<rect width="4.1495" height="0.427555" transform="matrix(-0.756727 0.658189 -0.66265 -0.745049 75.1777 18.1575)" fill="white"/>
<rect width="8.40471" height="0.427152" transform="matrix(-0.677238 0.738449 -0.742989 -0.66637 71.3105 14.3683)" fill="white"/>
<rect width="4.14949" height="0.427814" transform="matrix(-0.808999 0.593776 -0.598163 -0.796997 77.0137 20.4307)" fill="white"/>
<rect width="4.14975" height="0.428032" transform="matrix(-0.8558 0.52504 -0.529295 -0.843704 78.6504 22.9487)" fill="white"/>
<rect width="8.39566" height="0.428053" transform="matrix(-0.860421 0.517524 -0.521761 -0.848327 79.8613 25.0477)" fill="white"/>
<rect width="4.16692" height="0.426314" transform="matrix(0.861523 0.507718 -0.516145 0.856501 9.91406 22.8213)" fill="white"/>
<rect width="4.16955" height="0.42518" transform="matrix(0.681666 0.728038 -0.739494 0.677118 15.1875 16.328)" fill="white"/>
<rect width="6.85812" height="0.425791" transform="matrix(0.790226 0.610827 -0.620861 0.785488 11.5273 20.5058)" fill="white"/>
<rect width="4.16966" height="0.42506" transform="matrix(0.655343 0.751442 -0.763104 0.650832 17.2402 14.4573)" fill="white"/>
<rect width="4.16912" height="0.425464" transform="matrix(0.736466 0.67354 -0.684407 0.731839 13.3711 18.2459)" fill="white"/>
<rect width="4.16973" height="0.424803" transform="matrix(0.590337 0.802763 -0.814746 0.585931 19.5547 12.6637)" fill="white"/>
<rect width="8.45004" height="0.424588" transform="matrix(0.521002 0.848798 -0.860876 0.516759 21.877 10.8596)" fill="white"/>
<rect width="4.16949" height="0.424568" transform="matrix(0.513422 0.853348 -0.865423 0.5092 23.6875 9.77026)" fill="white"/>
<rect width="8.4075" height="0.426314" transform="matrix(-0.0138245 0.999904 -0.999909 -0.0135196 46.2227 4.55139)" fill="white"/>
<rect width="4.14669" height="0.426349" transform="matrix(-0.298652 0.954449 -0.956154 -0.292585 54.6562 5.79272)" fill="white"/>
<rect width="4.14479" height="0.42633" transform="matrix(-0.140778 0.99008 -0.990433 -0.137722 49.0566 4.77484)" fill="white"/>
<rect width="4.1473" height="0.426353" transform="matrix(-0.332435 0.943224 -0.945333 -0.325828 57.1855 6.50049)" fill="white"/>
<rect width="4.14559" height="0.42634" transform="matrix(-0.223137 0.974851 -0.975791 -0.218425 51.957 5.22168)" fill="white"/>
<rect width="8.41162" height="0.426361" transform="matrix(-0.410026 0.912196 -0.915357 -0.402371 59.9082 7.53015)" fill="white"/>
<rect width="4.15091" height="0.426368" transform="matrix(-0.484923 0.874702 -0.879001 -0.476557 62.4668 8.7146)" fill="white"/>
<rect width="4.15114" height="0.426368" transform="matrix(-0.492675 0.870361 -0.874782 -0.484254 64.6875 9.88379)" fill="white"/>
<rect width="4.16776" height="0.426314" transform="matrix(-0.877124 0.480264 -0.488534 -0.872545 80.8145 26.8652)" fill="white"/>
<rect width="4.16286" height="0.427416" transform="matrix(-0.979057 0.215746 -0.219253 -0.973026 83.834 34.64)" fill="white"/>
<rect width="4.16584" height="0.426821" transform="matrix(-0.931296 0.367466 -0.373723 -0.926261 82.0293 29.4096)" fill="white"/>
<rect width="8.41331" height="0.427534" transform="matrix(-0.98626 0.181481 -0.184388 -0.979951 84.4355 37.335)" fill="white"/>
<rect width="4.16436" height="0.427139" transform="matrix(-0.959023 0.289983 -0.294826 -0.953531 83.0742 32.1213)" fill="white"/>
<rect width="4.16044" height="0.427786" transform="matrix(-0.998393 0.100122 -0.101659 -0.991361 84.8359 40.2173)" fill="white"/>
<rect width="4.1587" height="0.427998" transform="matrix(-1.00374 0.0177206 -0.0179789 -0.995903 85.2422 43.108)" fill="white"/>
<rect width="4.15851" height="0.428018" transform="matrix(-1.0039 0.0089543 -0.00908406 -0.995978 85.2598 45.5511)" fill="white"/>
<path d="M48.9674 13.0635L46.3494 41.5616L41.1184 40.5842L48.9674 13.0635Z" fill="#0583EA"/>
<circle cx="44.2137" cy="38.4737" r="4.65743" transform="rotate(-60 44.2137 38.4737)" fill="white" stroke="white" stroke-width="0.940895"/>
<path d="M87.3789 46.6289C87.3789 35.0871 82.794 24.018 74.6326 15.8566C66.4713 7.69533 55.4022 3.11035 43.8604 3.11035C32.3185 3.11035 21.2494 7.69533 13.0881 15.8566C4.92678 24.018 0.341799 35.0871 0.341797 46.6289" stroke="#0583EA" stroke-width="4.85973"/>
</g>
<path d="M33.1812 75.4211V73.3322H36.8418C37.7968 73.3322 38.6324 73.1266 39.3486 72.7155C40.078 72.3043 40.6417 71.734 41.0396 71.0045C41.4508 70.2618 41.6564 69.4063 41.6564 68.4381C41.6564 67.4832 41.4508 66.641 41.0396 65.9115C40.6285 65.182 40.0582 64.6117 39.3287 64.2006C38.6125 63.7894 37.7835 63.5838 36.8418 63.5838H33.1812V61.4949H36.9015C37.9095 61.4949 38.8446 61.6739 39.7067 62.032C40.5688 62.3769 41.3181 62.8676 41.9548 63.5042C42.6047 64.1276 43.1087 64.8637 43.4668 65.7125C43.8249 66.5481 44.0039 67.4633 44.0039 68.458C44.0039 69.4395 43.8249 70.3546 43.4668 71.2035C43.1087 72.0523 42.6113 72.795 41.9747 73.4317C41.338 74.055 40.5887 74.5458 39.7266 74.9039C38.8645 75.2487 37.9361 75.4211 36.9413 75.4211H33.1812ZM31.6096 75.4211V61.4949H33.8974V75.4211H31.6096ZM46.1373 75.4211V65.8717H48.3257V75.4211H46.1373ZM48.3257 70.1093L47.5697 69.7313C47.5697 68.5243 47.835 67.5495 48.3655 66.8068C48.9093 66.0508 49.725 65.6728 50.8126 65.6728C51.29 65.6728 51.7211 65.759 52.1057 65.9314C52.4903 66.1038 52.8485 66.3823 53.18 66.767L51.7476 68.2392C51.5752 68.0535 51.3829 67.9209 51.1707 67.8413C50.9585 67.7617 50.7131 67.7219 50.4346 67.7219C49.8245 67.7219 49.3205 67.9142 48.9226 68.2989C48.5247 68.6835 48.3257 69.287 48.3257 70.1093ZM54.3583 75.4211V65.8717H56.5467V75.4211H54.3583ZM55.4525 64.121C55.0812 64.121 54.7695 63.995 54.5175 63.743C54.2787 63.491 54.1594 63.1793 54.1594 62.8079C54.1594 62.4366 54.2787 62.1249 54.5175 61.8729C54.7695 61.6209 55.0812 61.4949 55.4525 61.4949C55.8372 61.4949 56.1488 61.6209 56.3876 61.8729C56.6263 62.1249 56.7457 62.4366 56.7457 62.8079C56.7457 63.1793 56.6263 63.491 56.3876 63.743C56.1488 63.995 55.8372 64.121 55.4525 64.121ZM62.3236 75.4211L57.9667 65.8717H60.3939L63.7163 73.6505H62.2839L65.6262 65.8717H67.9538L63.5969 75.4211H62.3236ZM69.3617 75.4211V65.8717H71.5501V75.4211H69.3617ZM70.4559 64.121C70.0845 64.121 69.7729 63.995 69.5209 63.743C69.2821 63.491 69.1628 63.1793 69.1628 62.8079C69.1628 62.4366 69.2821 62.1249 69.5209 61.8729C69.7729 61.6209 70.0845 61.4949 70.4559 61.4949C70.8405 61.4949 71.1522 61.6209 71.391 61.8729C71.6297 62.1249 71.7491 62.4366 71.7491 62.8079C71.7491 63.1793 71.6297 63.491 71.391 63.743C71.1522 63.995 70.8405 64.121 70.4559 64.121ZM80.6494 75.4211V69.9103C80.6494 69.2737 80.4439 68.7498 80.0327 68.3386C79.6348 67.9275 79.1175 67.7219 78.4809 67.7219C78.0565 67.7219 77.6785 67.8147 77.3469 68.0004C77.0153 68.1861 76.7567 68.4447 76.571 68.7763C76.3853 69.1079 76.2925 69.4859 76.2925 69.9103L75.437 69.4328C75.437 68.7034 75.5962 68.0601 75.9145 67.5031C76.2328 66.9328 76.6705 66.4884 77.2276 66.1701C77.7979 65.8385 78.4345 65.6728 79.1374 65.6728C79.8537 65.6728 80.4903 65.8584 81.0473 66.2298C81.6044 66.5879 82.0421 67.0588 82.3604 67.6423C82.6787 68.2126 82.8379 68.8095 82.8379 69.4328V75.4211H80.6494ZM74.1041 75.4211V65.8717H76.2925V75.4211H74.1041ZM89.1401 79.599C88.1321 79.599 87.2501 79.4133 86.4941 79.042C85.7381 78.6839 85.128 78.1732 84.6638 77.5101L86.0962 76.0777C86.4809 76.5551 86.9185 76.9132 87.4093 77.152C87.9 77.3907 88.4902 77.5101 89.1799 77.5101C90.042 77.5101 90.7251 77.2846 91.229 76.8337C91.733 76.396 91.985 75.7925 91.985 75.0232V72.6757L92.363 70.5668L91.985 68.4381V65.8717H94.1735V75.0232C94.1735 75.9384 93.9612 76.7342 93.5368 77.4106C93.1124 78.1003 92.5222 78.6374 91.7662 79.0221C91.0102 79.4067 90.1348 79.599 89.1401 79.599ZM89.0406 75.2222C88.1918 75.2222 87.4225 75.0166 86.7329 74.6055C86.0564 74.181 85.5193 73.6041 85.1214 72.8746C84.7368 72.1452 84.5444 71.3295 84.5444 70.4276C84.5444 69.5257 84.7368 68.7166 85.1214 68.0004C85.5193 67.2842 86.0564 66.7205 86.7329 66.3094C87.4225 65.885 88.1918 65.6728 89.0406 65.6728C89.7966 65.6728 90.4598 65.8253 91.0301 66.1303C91.6004 66.4354 92.0447 66.8598 92.363 67.4036C92.6814 67.9341 92.8405 68.5575 92.8405 69.2737V71.6213C92.8405 72.3242 92.6747 72.9476 92.3432 73.4914C92.0248 74.0351 91.5805 74.4596 91.0102 74.7646C90.4399 75.0697 89.7834 75.2222 89.0406 75.2222ZM89.4783 73.1532C90.0088 73.1532 90.4731 73.0404 90.8709 72.8149C91.2688 72.5895 91.5739 72.2778 91.7861 71.8799C92.0116 71.4687 92.1243 70.9913 92.1243 70.4475C92.1243 69.9037 92.0116 69.4328 91.7861 69.035C91.5739 68.6238 91.2688 68.3055 90.8709 68.08C90.4731 67.8545 90.0088 67.7418 89.4783 67.7418C88.9478 67.7418 88.477 67.8545 88.0658 68.08C87.6679 68.3055 87.3562 68.6238 87.1307 69.035C86.9053 69.4328 86.7925 69.9037 86.7925 70.4475C86.7925 70.978 86.9053 71.4488 87.1307 71.86C87.3562 72.2712 87.6679 72.5895 88.0658 72.8149C88.477 73.0404 88.9478 73.1532 89.4783 73.1532ZM103.91 75.6201C103.379 75.6201 102.869 75.5538 102.378 75.4211C101.887 75.2752 101.436 75.0763 101.025 74.8243C100.614 74.559 100.256 74.2407 99.9507 73.8694L101.343 72.4767C101.675 72.8614 102.053 73.1532 102.477 73.3521C102.915 73.5378 103.406 73.6306 103.95 73.6306C104.44 73.6306 104.812 73.5577 105.064 73.4118C105.316 73.2659 105.442 73.0537 105.442 72.7752C105.442 72.4834 105.322 72.2579 105.083 72.0987C104.845 71.9396 104.533 71.8069 104.148 71.7008C103.777 71.5815 103.379 71.4621 102.955 71.3427C102.544 71.2234 102.146 71.0642 101.761 70.8653C101.39 70.6531 101.085 70.3679 100.846 70.0098C100.607 69.6517 100.488 69.1875 100.488 68.6172C100.488 68.0071 100.627 67.4832 100.906 67.0455C101.197 66.6078 101.602 66.2696 102.119 66.0309C102.65 65.7921 103.28 65.6728 104.009 65.6728C104.778 65.6728 105.455 65.812 106.038 66.0905C106.635 66.3558 107.133 66.7603 107.531 67.3041L106.138 68.6967C105.859 68.3519 105.541 68.0933 105.183 67.9209C104.825 67.7484 104.414 67.6622 103.95 67.6622C103.512 67.6622 103.174 67.7285 102.935 67.8612C102.696 67.9938 102.577 68.1861 102.577 68.4381C102.577 68.7034 102.696 68.909 102.935 69.0548C103.174 69.2007 103.479 69.3267 103.85 69.4328C104.235 69.539 104.633 69.6583 105.044 69.791C105.468 69.9103 105.866 70.0827 106.237 70.3082C106.622 70.5204 106.934 70.8122 107.172 71.1836C107.411 71.5417 107.531 72.0125 107.531 72.5961C107.531 73.5245 107.206 74.2606 106.556 74.8044C105.906 75.3482 105.024 75.6201 103.91 75.6201ZM113.831 75.6201C112.889 75.6201 112.034 75.4012 111.265 74.9636C110.509 74.5259 109.912 73.929 109.474 73.173C109.036 72.417 108.817 71.5748 108.817 70.6464C108.817 69.7047 109.036 68.8625 109.474 68.1198C109.912 67.3638 110.509 66.767 111.265 66.3293C112.034 65.8916 112.889 65.6728 113.831 65.6728C114.574 65.6728 115.263 65.8187 115.9 66.1104C116.55 66.389 117.1 66.7935 117.551 67.324L116.119 68.7763C115.84 68.4447 115.502 68.1994 115.104 68.0402C114.72 67.8678 114.295 67.7816 113.831 67.7816C113.287 67.7816 112.803 67.9076 112.379 68.1596C111.967 68.3983 111.643 68.7299 111.404 69.1543C111.178 69.5787 111.066 70.0761 111.066 70.6464C111.066 71.2035 111.178 71.7008 111.404 72.1385C111.643 72.5629 111.967 72.9012 112.379 73.1532C112.803 73.3919 113.287 73.5113 113.831 73.5113C114.295 73.5113 114.72 73.4317 115.104 73.2725C115.502 73.1001 115.84 72.8481 116.119 72.5165L117.551 73.9688C117.1 74.4994 116.55 74.9105 115.9 75.2023C115.263 75.4808 114.574 75.6201 113.831 75.6201ZM125.774 75.4211V69.9103C125.774 69.2737 125.568 68.7498 125.157 68.3386C124.759 67.9275 124.242 67.7219 123.605 67.7219C123.181 67.7219 122.803 67.8147 122.471 68.0004C122.14 68.1861 121.881 68.4447 121.695 68.7763C121.51 69.1079 121.417 69.4859 121.417 69.9103L120.561 69.4328C120.561 68.7034 120.721 68.0601 121.039 67.5031C121.357 66.9328 121.795 66.4884 122.352 66.1701C122.922 65.8385 123.559 65.6728 124.262 65.6728C124.978 65.6728 125.615 65.8319 126.172 66.1502C126.729 66.4685 127.166 66.9129 127.485 67.4832C127.803 68.0402 127.962 68.6901 127.962 69.4328V75.4211H125.774ZM119.228 75.4211V61.097H121.417V75.4211H119.228ZM134.662 75.6201C133.734 75.6201 132.892 75.4012 132.136 74.9636C131.38 74.5126 130.776 73.9091 130.325 73.1532C129.888 72.3972 129.669 71.5549 129.669 70.6265C129.669 69.6981 129.888 68.8625 130.325 68.1198C130.776 67.3771 131.38 66.7869 132.136 66.3492C132.892 65.8982 133.734 65.6728 134.662 65.6728C135.604 65.6728 136.453 65.8916 137.209 66.3293C137.965 66.767 138.562 67.3638 138.999 68.1198C139.45 68.8625 139.676 69.6981 139.676 70.6265C139.676 71.5549 139.45 72.3972 138.999 73.1532C138.562 73.9091 137.965 74.5126 137.209 74.9636C136.453 75.4012 135.604 75.6201 134.662 75.6201ZM134.662 73.5113C135.206 73.5113 135.684 73.3919 136.095 73.1532C136.519 72.9012 136.844 72.5563 137.07 72.1186C137.308 71.6809 137.428 71.1836 137.428 70.6265C137.428 70.0695 137.308 69.5787 137.07 69.1543C136.831 68.7299 136.506 68.3983 136.095 68.1596C135.684 67.9076 135.206 67.7816 134.662 67.7816C134.132 67.7816 133.654 67.9076 133.23 68.1596C132.819 68.3983 132.494 68.7299 132.255 69.1543C132.03 69.5787 131.917 70.0695 131.917 70.6265C131.917 71.1836 132.03 71.6809 132.255 72.1186C132.494 72.5563 132.819 72.9012 133.23 73.1532C133.654 73.3919 134.132 73.5113 134.662 73.5113ZM145.972 75.6201C145.044 75.6201 144.201 75.4012 143.445 74.9636C142.689 74.5126 142.086 73.9091 141.635 73.1532C141.197 72.3972 140.978 71.5549 140.978 70.6265C140.978 69.6981 141.197 68.8625 141.635 68.1198C142.086 67.3771 142.689 66.7869 143.445 66.3492C144.201 65.8982 145.044 65.6728 145.972 65.6728C146.914 65.6728 147.763 65.8916 148.519 66.3293C149.275 66.767 149.871 67.3638 150.309 68.1198C150.76 68.8625 150.985 69.6981 150.985 70.6265C150.985 71.5549 150.76 72.3972 150.309 73.1532C149.871 73.9091 149.275 74.5126 148.519 74.9636C147.763 75.4012 146.914 75.6201 145.972 75.6201ZM145.972 73.5113C146.516 73.5113 146.993 73.3919 147.404 73.1532C147.829 72.9012 148.154 72.5563 148.379 72.1186C148.618 71.6809 148.737 71.1836 148.737 70.6265C148.737 70.0695 148.618 69.5787 148.379 69.1543C148.141 68.7299 147.816 68.3983 147.404 68.1596C146.993 67.9076 146.516 67.7816 145.972 67.7816C145.441 67.7816 144.964 67.9076 144.54 68.1596C144.128 68.3983 143.804 68.7299 143.565 69.1543C143.339 69.5787 143.227 70.0695 143.227 70.6265C143.227 71.1836 143.339 71.6809 143.565 72.1186C143.804 72.5563 144.128 72.9012 144.54 73.1532C144.964 73.3919 145.441 73.5113 145.972 73.5113ZM152.905 75.4211V61.097H155.093V75.4211H152.905Z" fill="white"/>
<defs>
<clipPath id="clip0_794_138">
<rect width="156.315" height="55.4211" fill="white"/>
</clipPath>
</defs>
</svg>
