<svg width="122" height="64" viewBox="0 0 122 64" fill="none" xmlns="http://www.w3.org/2000/svg">
<path d="M19.1557 51.8345V50.7532H21.0505C21.5448 50.7532 21.9773 50.6468 22.348 50.434C22.7256 50.2212 23.0173 49.926 23.2233 49.5484C23.4361 49.164 23.5425 48.7212 23.5425 48.22C23.5425 47.7258 23.4361 47.2898 23.2233 46.9123C23.0105 46.5347 22.7153 46.2395 22.3377 46.0267C21.967 45.8139 21.5379 45.7074 21.0505 45.7074H19.1557V44.6262H21.0814C21.6031 44.6262 22.0871 44.7189 22.5333 44.9042C22.9796 45.0827 23.3674 45.3367 23.697 45.6663C24.0333 45.9889 24.2942 46.3699 24.4796 46.8093C24.6649 47.2418 24.7576 47.7155 24.7576 48.2303C24.7576 48.7384 24.6649 49.212 24.4796 49.6514C24.2942 50.0908 24.0368 50.4752 23.7073 50.8047C23.3777 51.1274 22.9899 51.3814 22.5436 51.5667C22.0974 51.7452 21.6169 51.8345 21.102 51.8345H19.1557ZM18.3422 51.8345V44.6262H19.5265V51.8345H18.3422ZM26.8298 48.7761V47.7978H28.6525C29.0163 47.7978 29.2978 47.7052 29.4969 47.5198C29.7028 47.3276 29.8058 47.0633 29.8058 46.7269C29.8058 46.4248 29.7063 46.1708 29.5072 45.9649C29.3081 45.7589 29.0266 45.656 28.6628 45.656H26.8298V44.6262H28.7143C29.1674 44.6262 29.5655 44.7189 29.9088 44.9042C30.252 45.0827 30.5163 45.3299 30.7017 45.6457C30.8939 45.9546 30.99 46.3081 30.99 46.7063C30.99 47.1251 30.8939 47.4889 30.7017 47.7978C30.5163 48.1068 30.252 48.347 29.9088 48.5187C29.5655 48.6903 29.1674 48.7761 28.7143 48.7761H26.8298ZM26.0163 51.8345V44.6262H27.2005V51.8345H26.0163ZM29.9706 51.8345L27.4477 48.704L28.5495 48.3024L31.4637 51.8345H29.9706ZM32.3931 51.8345V44.6262H33.5773V51.8345H32.3931ZM37.5687 51.8345L34.6545 44.6262H35.9417L38.2174 50.4649H37.7643L40.0607 44.6262H41.3273L38.3925 51.8345H37.5687ZM42.4115 51.8345V44.6262H43.5957V51.8345H42.4115ZM45.2083 51.8345V44.6262H46.0321L46.3925 45.9855V51.8345H45.2083ZM50.2026 51.8345L45.8879 46.2017L46.0321 44.6262L50.3468 50.259L50.2026 51.8345ZM50.2026 51.8345L49.8422 50.5679V44.6262H51.0264V51.8345H50.2026ZM55.895 51.9374C55.4008 51.9374 54.9339 51.8413 54.4946 51.6491C54.0552 51.4569 53.6708 51.1926 53.3413 50.8562C53.0117 50.513 52.7509 50.1182 52.5587 49.672C52.3733 49.2189 52.2806 48.7349 52.2806 48.22C52.2806 47.7052 52.3733 47.2246 52.5587 46.7784C52.7509 46.3322 53.0117 45.9409 53.3413 45.6045C53.6777 45.2612 54.069 44.9969 54.5152 44.8116C54.9683 44.6193 55.4557 44.5232 55.9774 44.5232C56.5472 44.5232 57.0758 44.6331 57.5632 44.8528C58.0507 45.0724 58.4591 45.3848 58.7887 45.7898L57.9854 46.593C57.7726 46.291 57.4877 46.061 57.1308 45.9031C56.7738 45.7383 56.3893 45.656 55.9774 45.656C55.4831 45.656 55.0472 45.7658 54.6696 45.9855C54.2989 46.1983 54.0106 46.4969 53.8047 46.8814C53.5987 47.2658 53.4957 47.712 53.4957 48.22C53.4957 48.7281 53.5987 49.1777 53.8047 49.569C54.0175 49.9535 54.3024 50.2555 54.6593 50.4752C55.0163 50.6949 55.4214 50.8047 55.8745 50.8047C56.355 50.8047 56.7669 50.7189 57.1102 50.5473C57.4603 50.3688 57.728 50.1079 57.9134 49.7647C58.0987 49.4146 58.1914 48.9855 58.1914 48.4775L58.9328 49.013H55.8539V47.9317H59.4168V48.0965C59.4168 48.9546 59.2623 49.6686 58.9534 50.2384C58.6514 50.8082 58.236 51.2338 57.7074 51.5152C57.1788 51.7967 56.5747 51.9374 55.895 51.9374ZM64.768 51.9374C64.1982 51.9374 63.7142 51.8345 63.316 51.6285C62.9179 51.4226 62.5609 51.1205 62.2451 50.7223L63.0483 49.9191C63.2474 50.2075 63.4842 50.434 63.7588 50.5988C64.0334 50.7567 64.3835 50.8356 64.8092 50.8356C65.2073 50.8356 65.5231 50.7532 65.7565 50.5885C65.9968 50.4237 66.1169 50.1972 66.1169 49.9088C66.1169 49.6686 66.0552 49.4729 65.9316 49.3219C65.808 49.1708 65.6433 49.0473 65.4373 48.9512C65.2382 48.8482 65.0151 48.7589 64.768 48.6834C64.5277 48.6011 64.284 48.5118 64.0368 48.4157C63.7966 48.3127 63.5735 48.1857 63.3675 48.0347C63.1684 47.8837 63.0071 47.688 62.8835 47.4477C62.76 47.2075 62.6982 46.902 62.6982 46.5312C62.6982 46.1056 62.8011 45.7452 63.0071 45.45C63.2199 45.1479 63.5048 44.918 63.8618 44.7601C64.2188 44.6022 64.6169 44.5232 65.0563 44.5232C65.53 44.5232 65.9522 44.6159 66.3229 44.8013C66.7005 44.9866 67.006 45.2235 67.2394 45.5118L66.4362 46.315C66.2302 46.0816 66.014 45.91 65.7874 45.8001C65.5677 45.6834 65.3137 45.6251 65.0254 45.6251C64.6684 45.6251 64.387 45.6971 64.181 45.8413C63.9819 45.9855 63.8824 46.188 63.8824 46.4489C63.8824 46.6685 63.9442 46.847 64.0677 46.9843C64.1913 47.1148 64.3526 47.228 64.5517 47.3242C64.7577 47.4134 64.9808 47.4992 65.2211 47.5816C65.4682 47.664 65.7119 47.7567 65.9522 47.8596C66.1993 47.9626 66.4224 48.0965 66.6215 48.2612C66.8275 48.4191 66.9922 48.6251 67.1158 48.8791C67.2394 49.1331 67.3012 49.4523 67.3012 49.8368C67.3012 50.4821 67.0712 50.9935 66.6112 51.3711C66.1581 51.7487 65.5437 51.9374 64.768 51.9374ZM71.8684 51.9374C71.3466 51.9374 70.8626 51.8448 70.4164 51.6594C69.977 51.4672 69.5926 51.2029 69.2631 50.8665C68.9336 50.5233 68.6796 50.1285 68.5011 49.6823C68.3226 49.2292 68.2333 48.7452 68.2333 48.2303C68.2333 47.7155 68.3226 47.2349 68.5011 46.7887C68.6796 46.3356 68.9336 45.9409 69.2631 45.6045C69.5926 45.2681 69.977 45.0038 70.4164 44.8116C70.8626 44.6193 71.3466 44.5232 71.8684 44.5232C72.4519 44.5232 72.9565 44.6193 73.3821 44.8116C73.8077 45.0038 74.1853 45.2647 74.5148 45.5942L73.7116 46.3974C73.4988 46.164 73.2379 45.982 72.929 45.8516C72.6269 45.7212 72.2734 45.656 71.8684 45.656C71.5114 45.656 71.1853 45.7177 70.8901 45.8413C70.5949 45.9649 70.3375 46.1434 70.1178 46.3768C69.905 46.6033 69.7402 46.8745 69.6235 47.1903C69.5068 47.5061 69.4484 47.8528 69.4484 48.2303C69.4484 48.6079 69.5068 48.9546 69.6235 49.2704C69.7402 49.5862 69.905 49.8608 70.1178 50.0942C70.3375 50.3207 70.5949 50.4958 70.8901 50.6194C71.1853 50.7429 71.5114 50.8047 71.8684 50.8047C72.3077 50.8047 72.6784 50.7395 72.9805 50.6091C73.2894 50.4718 73.5503 50.2864 73.7631 50.053L74.5663 50.8562C74.2368 51.1926 73.8489 51.4569 73.4027 51.6491C72.9565 51.8413 72.445 51.9374 71.8684 51.9374ZM75.6745 51.8345V44.6262H76.8587V51.8345H75.6745ZM80.2569 51.8345V44.6262H81.4411V51.8345H80.2569ZM76.488 48.6422V47.561H80.5143V48.6422H76.488ZM86.3727 51.9374C85.8579 51.9374 85.3773 51.8413 84.9311 51.6491C84.4849 51.4569 84.0936 51.1926 83.7572 50.8562C83.4208 50.513 83.1565 50.1182 82.9643 49.672C82.7789 49.2189 82.6862 48.7349 82.6862 48.22C82.6862 47.7052 82.7789 47.2246 82.9643 46.7784C83.1565 46.3322 83.4173 45.9409 83.7469 45.6045C84.0833 45.2612 84.4711 44.9969 84.9105 44.8116C85.3567 44.6193 85.8373 44.5232 86.3521 44.5232C86.867 44.5232 87.3441 44.6193 87.7835 44.8116C88.2297 44.9969 88.621 45.2612 88.9574 45.6045C89.2938 45.9409 89.5547 46.3356 89.74 46.7887C89.9322 47.2349 90.0284 47.7155 90.0284 48.2303C90.0284 48.7452 89.9322 49.2292 89.74 49.6823C89.5547 50.1285 89.2938 50.5198 88.9574 50.8562C88.6279 51.1926 88.24 51.4569 87.7938 51.6491C87.3544 51.8413 86.8807 51.9374 86.3727 51.9374ZM86.3521 50.8047C86.8396 50.8047 87.2652 50.6949 87.629 50.4752C87.9997 50.2555 88.2881 49.9535 88.494 49.569C88.7068 49.1777 88.8132 48.7281 88.8132 48.22C88.8132 47.8425 88.7515 47.4992 88.6279 47.1903C88.5112 46.8745 88.343 46.6033 88.1233 46.3768C87.9036 46.1434 87.6428 45.9649 87.3407 45.8413C87.0455 45.7177 86.716 45.656 86.3521 45.656C85.8716 45.656 85.446 45.7658 85.0752 45.9855C84.7114 46.1983 84.4231 46.4969 84.2103 46.8814C84.0043 47.2658 83.9013 47.712 83.9013 48.22C83.9013 48.5976 83.9597 48.9477 84.0764 49.2704C84.2 49.5862 84.3682 49.8573 84.581 50.0839C84.8006 50.3104 85.0615 50.4889 85.3636 50.6194C85.6656 50.7429 85.9952 50.8047 86.3521 50.8047ZM94.6803 51.9374C94.1655 51.9374 93.6849 51.8413 93.2387 51.6491C92.7925 51.4569 92.4012 51.1926 92.0648 50.8562C91.7284 50.513 91.4641 50.1182 91.2719 49.672C91.0865 49.2189 90.9938 48.7349 90.9938 48.22C90.9938 47.7052 91.0865 47.2246 91.2719 46.7784C91.4641 46.3322 91.7249 45.9409 92.0545 45.6045C92.3909 45.2612 92.7787 44.9969 93.2181 44.8116C93.6643 44.6193 94.1449 44.5232 94.6597 44.5232C95.1746 44.5232 95.6517 44.6193 96.0911 44.8116C96.5373 44.9969 96.9286 45.2612 97.265 45.6045C97.6014 45.9409 97.8623 46.3356 98.0476 46.7887C98.2398 47.2349 98.336 47.7155 98.336 48.2303C98.336 48.7452 98.2398 49.2292 98.0476 49.6823C97.8623 50.1285 97.6014 50.5198 97.265 50.8562C96.9355 51.1926 96.5476 51.4569 96.1014 51.6491C95.662 51.8413 95.1883 51.9374 94.6803 51.9374ZM94.6597 50.8047C95.1472 50.8047 95.5728 50.6949 95.9366 50.4752C96.3073 50.2555 96.5957 49.9535 96.8016 49.569C97.0144 49.1777 97.1209 48.7281 97.1209 48.22C97.1209 47.8425 97.0591 47.4992 96.9355 47.1903C96.8188 46.8745 96.6506 46.6033 96.4309 46.3768C96.2112 46.1434 95.9504 45.9649 95.6483 45.8413C95.3531 45.7177 95.0236 45.656 94.6597 45.656C94.1792 45.656 93.7536 45.7658 93.3829 45.9855C93.019 46.1983 92.7307 46.4969 92.5179 46.8814C92.3119 47.2658 92.2089 47.712 92.2089 48.22C92.2089 48.5976 92.2673 48.9477 92.384 49.2704C92.5076 49.5862 92.6758 49.8573 92.8886 50.0839C93.1082 50.3104 93.3691 50.4889 93.6712 50.6194C93.9732 50.7429 94.3028 50.8047 94.6597 50.8047ZM99.5917 51.8345V44.6262H100.776V51.8345H99.5917ZM100.405 51.8345V50.7532H104.174V51.8345H100.405Z" fill="#222222"/>
<rect x="17.4727" y="30.3091" width="2.16094" height="0.220661" fill="#323232"/>
<rect width="2.15968" height="0.220661" transform="matrix(0.960108 0.279631 -0.28543 0.9584 18.0781 26.0396)" fill="#323232"/>
<rect width="2.16069" height="0.220661" transform="matrix(0.992242 0.124318 -0.127078 0.991893 17.5703 28.8564)" fill="#323232"/>
<rect width="4.00135" height="0.220661" transform="matrix(0.949748 0.313017 -0.319365 0.947632 18.4883 24.6704)" fill="#323232"/>
<rect width="2.16026" height="0.220661" transform="matrix(0.978718 0.205212 -0.209639 0.977779 17.7832 27.3691)" fill="#323232"/>
<rect width="2.1585" height="0.220661" transform="matrix(0.920833 0.389957 -0.397378 0.917655 19.0371 23.2661)" fill="#323232"/>
<rect width="2.15748" height="0.220661" transform="matrix(0.885506 0.464628 -0.472786 0.881177 19.75 21.8867)" fill="#323232"/>
<rect width="2.15736" height="0.220661" transform="matrix(0.881394 0.472382 -0.480597 0.876942 20.3848 20.8042)" fill="#323232"/>
<rect width="2.1491" height="0.220661" transform="matrix(0.504323 0.863515 -0.868347 0.495957 29.0625 12.7007)" fill="#323232"/>
<rect width="4.36411" height="0.220088" transform="matrix(0.236977 0.968804 -0.975092 0.233254 32.9395 11.1655)" fill="#323232"/>
<rect width="2.15011" height="0.220397" transform="matrix(0.390536 0.919271 -0.924578 0.384125 30.2188 12.1392)" fill="#323232"/>
<rect width="2.15204" height="0.220027" transform="matrix(0.202251 0.976357 -0.982915 0.199118 34.3438 10.833)" fill="#323232"/>
<rect width="2.15089" height="0.220232" transform="matrix(0.312166 0.947951 -0.953713 0.307135 31.6289 11.5781)" fill="#323232"/>
<rect width="2.15292" height="0.219897" transform="matrix(0.119758 0.989262 -0.996517 0.117975 35.8496 10.6006)" fill="#323232"/>
<rect width="2.1538" height="0.219787" transform="matrix(0.0361851 0.995322 -1.00335 0.0356721 37.4141 10.3735)" fill="#323232"/>
<rect width="2.1539" height="0.219776" transform="matrix(0.0272941 0.995558 -1.00367 0.0269094 38.6797 10.3735)" fill="#323232"/>
<rect width="2.14915" height="0.220661" transform="matrix(-0.507747 0.861506 -0.866393 -0.499363 50.3223 13.7866)" fill="#323232"/>
<rect width="2.14784" height="0.221241" transform="matrix(-0.73286 0.684251 -0.688737 -0.721391 53.7461 16.4531)" fill="#323232"/>
<rect width="2.14838" height="0.220927" transform="matrix(-0.613165 0.791493 -0.796121 -0.603145 51.541 14.6006)" fill="#323232"/>
<rect width="2.14779" height="0.221303" transform="matrix(-0.756727 0.658189 -0.66265 -0.745049 54.7344 17.4941)" fill="#323232"/>
<rect width="4.3503" height="0.221095" transform="matrix(-0.677238 0.738449 -0.742989 -0.66637 52.7344 15.5322)" fill="#323232"/>
<rect width="2.14778" height="0.221437" transform="matrix(-0.808999 0.593776 -0.598163 -0.796997 55.6855 18.6704)" fill="#323232"/>
<rect width="2.14792" height="0.22155" transform="matrix(-0.8558 0.52504 -0.529295 -0.843704 56.5332 19.9736)" fill="#323232"/>
<rect width="4.34561" height="0.221561" transform="matrix(-0.860421 0.517524 -0.521761 -0.848327 57.1582 21.0605)" fill="#323232"/>
<rect width="2.15681" height="0.220661" transform="matrix(0.861523 0.507718 -0.516145 0.856501 20.9551 19.9072)" fill="#323232"/>
<rect width="2.15817" height="0.220074" transform="matrix(0.681666 0.728038 -0.739494 0.677118 23.6855 16.5464)" fill="#323232"/>
<rect width="3.54978" height="0.22039" transform="matrix(0.790226 0.610827 -0.620861 0.785488 21.791 18.709)" fill="#323232"/>
<rect width="2.15822" height="0.220012" transform="matrix(0.655343 0.751442 -0.763104 0.650832 24.748 15.5781)" fill="#323232"/>
<rect width="2.15795" height="0.220221" transform="matrix(0.736466 0.67354 -0.684407 0.731839 22.7441 17.5391)" fill="#323232"/>
<rect width="2.15826" height="0.219879" transform="matrix(0.590337 0.802763 -0.814746 0.585931 25.9453 14.6499)" fill="#323232"/>
<rect width="4.37376" height="0.219768" transform="matrix(0.521002 0.848798 -0.860876 0.516759 27.1484 13.7163)" fill="#323232"/>
<rect width="2.15814" height="0.219757" transform="matrix(0.513422 0.853348 -0.865423 0.5092 28.0859 13.1523)" fill="#323232"/>
<rect width="4.35174" height="0.220661" transform="matrix(-0.0138245 0.999904 -0.999909 -0.0135196 39.748 10.4507)" fill="#323232"/>
<rect width="2.14634" height="0.220679" transform="matrix(-0.298652 0.954449 -0.956154 -0.292585 44.1133 11.0933)" fill="#323232"/>
<rect width="2.14535" height="0.220669" transform="matrix(-0.140778 0.99008 -0.990433 -0.137722 41.2148 10.5664)" fill="#323232"/>
<rect width="2.14665" height="0.220681" transform="matrix(-0.332435 0.943224 -0.945333 -0.325828 45.4219 11.46)" fill="#323232"/>
<rect width="2.14577" height="0.220675" transform="matrix(-0.223137 0.974851 -0.975791 -0.218425 42.7168 10.7979)" fill="#323232"/>
<rect width="4.35387" height="0.220685" transform="matrix(-0.410026 0.912196 -0.915357 -0.402371 46.832 11.9927)" fill="#323232"/>
<rect width="2.14852" height="0.220689" transform="matrix(-0.484923 0.874702 -0.879001 -0.476557 48.1562 12.606)" fill="#323232"/>
<rect width="2.14864" height="0.220689" transform="matrix(-0.492675 0.870361 -0.874782 -0.484254 49.3047 13.2109)" fill="#323232"/>
<rect width="2.15724" height="0.220661" transform="matrix(-0.877124 0.480264 -0.488534 -0.872545 57.6543 22.0005)" fill="#323232"/>
<rect width="2.15471" height="0.221231" transform="matrix(-0.979057 0.215746 -0.219253 -0.973026 59.2168 26.0249)" fill="#323232"/>
<rect width="2.15625" height="0.220923" transform="matrix(-0.931296 0.367466 -0.373723 -0.926261 58.2812 23.3174)" fill="#323232"/>
<rect width="4.35475" height="0.221293" transform="matrix(-0.98626 0.181481 -0.184388 -0.979951 59.5273 27.4199)" fill="#323232"/>
<rect width="2.15548" height="0.221088" transform="matrix(-0.959023 0.289983 -0.294826 -0.953531 58.8223 24.7212)" fill="#323232"/>
<rect width="2.15345" height="0.221423" transform="matrix(-0.998393 0.100122 -0.101659 -0.991361 59.7344 28.9116)" fill="#323232"/>
<rect width="2.15255" height="0.221533" transform="matrix(-1.00374 0.0177206 -0.0179789 -0.995903 59.9453 30.4082)" fill="#323232"/>
<rect width="2.15246" height="0.221543" transform="matrix(-1.0039 0.0089543 -0.00908406 -0.995978 59.9551 31.6724)" fill="#323232"/>
<path d="M61.0506 32.7318C61.0506 26.7578 58.6774 21.0284 54.4531 16.8041C50.2288 12.5797 44.4994 10.2065 38.5253 10.2065C32.5512 10.2065 26.8218 12.5797 22.5975 16.804C18.3732 21.0284 16 26.7578 16 32.7318" stroke="#0583EA" stroke-width="2.5154"/>
<path d="M42.5046 14.1764L41.1496 28.9271L38.442 28.4212L42.5046 14.1764Z" fill="#0583EA"/>
<path d="M25.491 37.7686V25.6234H27.9095V37.7686H25.491ZM21.5368 27.4946V25.3586H31.8637V27.4946H21.5368ZM39.0293 37.9627C38.1231 37.9627 37.2758 37.798 36.4873 37.4685C35.7106 37.1389 35.028 36.6858 34.4395 36.1092C33.8629 35.5208 33.4098 34.8382 33.0803 34.0614C32.7508 33.273 32.586 32.4315 32.586 31.5371C32.586 30.6427 32.7449 29.813 33.0626 29.048C33.3921 28.2713 33.8452 27.5946 34.4219 27.0179C35.0103 26.4295 35.6929 25.9764 36.4696 25.6587C37.2464 25.3291 38.0878 25.1644 38.994 25.1644C39.9119 25.1644 40.7593 25.3291 41.536 25.6587C42.3127 25.9764 42.9894 26.4295 43.5661 27.0179C44.1545 27.5946 44.6135 28.2713 44.943 29.048C45.2725 29.8248 45.4373 30.6603 45.4373 31.5547C45.4373 32.4491 45.2725 33.2847 44.943 34.0614C44.6135 34.8382 44.1545 35.5208 43.5661 36.1092C42.9894 36.6858 42.3127 37.1389 41.536 37.4685C40.7711 37.798 39.9355 37.9627 39.0293 37.9627ZM38.994 35.7208C39.7943 35.7208 40.4886 35.5443 41.077 35.1912C41.6655 34.8382 42.1244 34.3498 42.454 33.726C42.7953 33.1023 42.9659 32.3727 42.9659 31.5371C42.9659 30.9251 42.8717 30.3661 42.6835 29.8601C42.4952 29.354 42.2245 28.9186 41.8714 28.5537C41.5184 28.1771 41.1006 27.8888 40.6181 27.6888C40.1355 27.4887 39.5942 27.3887 38.994 27.3887C38.2173 27.3887 37.5288 27.5652 36.9286 27.9182C36.3402 28.2595 35.8753 28.742 35.534 29.3658C35.2045 29.9895 35.0397 30.7133 35.0397 31.5371C35.0397 32.1608 35.1339 32.7316 35.3222 33.2494C35.5223 33.7672 35.7929 34.2086 36.1342 34.5734C36.4873 34.9382 36.9051 35.2207 37.3876 35.4207C37.8819 35.6208 38.4173 35.7208 38.994 35.7208ZM49.547 33.1611V31.2017H52.4244C52.801 31.2017 53.1423 31.1252 53.4483 30.9722C53.7543 30.8192 53.9955 30.6015 54.172 30.319C54.3486 30.0248 54.4368 29.6718 54.4368 29.2599C54.4368 28.8597 54.3486 28.5126 54.172 28.2183C53.9955 27.9241 53.7543 27.7005 53.4483 27.5475C53.1423 27.3945 52.801 27.318 52.4244 27.318H49.547V25.3586H52.6715C53.46 25.3586 54.1662 25.5174 54.7899 25.8352C55.4254 26.153 55.9256 26.606 56.2904 27.1945C56.6552 27.7711 56.8376 28.4596 56.8376 29.2599C56.8376 30.0601 56.6552 30.7545 56.2904 31.3429C55.9256 31.9196 55.4254 32.3668 54.7899 32.6845C54.1662 33.0023 53.46 33.1611 52.6715 33.1611H49.547ZM47.7817 37.7686V25.3586H50.1825V37.7686H47.7817ZM69.3647 37.7686V25.6234H71.7831V37.7686H69.3647ZM65.4104 27.4946V25.3586H75.7374V27.4946H65.4104ZM77.8364 37.7686V25.3586H80.2372V37.7686H77.8364ZM83.2254 37.7686V25.3586H85.6262V37.7686H83.2254ZM84.9907 37.7686V35.6502H91.8577V37.7686H84.9907ZM84.9907 32.455V30.4073H91.2398V32.455H84.9907ZM84.9907 27.4769V25.3586H91.7694V27.4769H84.9907ZM96.0513 32.5786V30.7074H98.9287C99.5172 30.7074 99.9703 30.5603 100.288 30.2661C100.618 29.9601 100.782 29.5423 100.782 29.0127C100.782 28.5302 100.618 28.1301 100.288 27.8123C99.9703 27.4828 99.5172 27.318 98.9287 27.318H96.0513V25.3586H99.1406C99.9408 25.3586 100.641 25.5174 101.241 25.8352C101.853 26.1412 102.324 26.5649 102.654 27.1062C102.995 27.6476 103.165 28.2713 103.165 28.9774C103.165 29.7071 102.995 30.3426 102.654 30.8839C102.324 31.4135 101.853 31.8313 101.241 32.1373C100.629 32.4315 99.9173 32.5786 99.1053 32.5786H96.0513ZM94.286 37.7686V25.3586H96.6868V37.7686H94.286ZM101.065 37.7686L96.9693 32.4021L99.1759 31.7136L103.977 37.7686H101.065Z" fill="#0583EA"/>
<circle cx="39.1042" cy="31.0156" r="3.76369" transform="rotate(-60 39.1042 31.0156)" fill="black" stroke="white" stroke-width="1.22099"/>
<rect x="0.75" y="0.75" width="119.649" height="61.5744" rx="3.25" stroke="#0583EA" stroke-width="1.5"/>
</svg>
