<svg width="16" height="16" viewBox="0 0 16 16" fill="none" xmlns="http://www.w3.org/2000/svg">
<g clip-path="url(#clip0_752_527)">
<path d="M2.66537 13.3332C2.2987 13.3332 1.9847 13.2025 1.72337 12.9412C1.46203 12.6798 1.33159 12.3661 1.33203 11.9998V3.99984C1.33203 3.63317 1.4627 3.31917 1.72403 3.05784C1.98537 2.7965 2.29914 2.66606 2.66537 2.66651H13.332C13.6987 2.66651 14.0127 2.79717 14.274 3.0585C14.5354 3.31984 14.6658 3.63362 14.6654 3.99984V11.9998C14.6654 12.3665 14.5347 12.6805 14.2734 12.9418C14.012 13.2032 13.6983 13.3336 13.332 13.3332H2.66537ZM7.9987 8.6665L13.332 5.33317V3.99984L7.9987 7.33317L2.66537 3.99984V5.33317L7.9987 8.6665Z" fill="#0583EA"/>
</g>
<defs>
<clipPath id="clip0_752_527">
<rect width="16" height="16" fill="white"/>
</clipPath>
</defs>
</svg>
