<svg width="122" height="64" viewBox="0 0 122 64" fill="none" xmlns="http://www.w3.org/2000/svg">
<path d="M19.1557 51.8347V50.7535H21.0505C21.5448 50.7535 21.9773 50.6471 22.348 50.4343C22.7256 50.2214 23.0173 49.9262 23.2233 49.5487C23.4361 49.1642 23.5425 48.7214 23.5425 48.2203C23.5425 47.726 23.4361 47.2901 23.2233 46.9125C23.0105 46.5349 22.7153 46.2397 22.3377 46.0269C21.967 45.8141 21.5379 45.7077 21.0505 45.7077H19.1557V44.6265H21.0814C21.6031 44.6265 22.0871 44.7191 22.5333 44.9045C22.9796 45.083 23.3674 45.337 23.697 45.6665C24.0333 45.9892 24.2942 46.3702 24.4796 46.8095C24.6649 47.242 24.7576 47.7157 24.7576 48.2306C24.7576 48.7386 24.6649 49.2123 24.4796 49.6516C24.2942 50.091 24.0368 50.4754 23.7073 50.805C23.3777 51.1276 22.9899 51.3816 22.5436 51.567C22.0974 51.7455 21.6169 51.8347 21.102 51.8347H19.1557ZM18.3422 51.8347V44.6265H19.5265V51.8347H18.3422ZM26.8298 48.7764V47.7981H28.6525C29.0163 47.7981 29.2978 47.7054 29.4969 47.5201C29.7028 47.3278 29.8058 47.0635 29.8058 46.7271C29.8058 46.4251 29.7063 46.1711 29.5072 45.9651C29.3081 45.7592 29.0266 45.6562 28.6628 45.6562H26.8298V44.6265H28.7143C29.1674 44.6265 29.5655 44.7191 29.9088 44.9045C30.252 45.083 30.5163 45.3301 30.7017 45.6459C30.8939 45.9548 30.99 46.3084 30.99 46.7066C30.99 47.1253 30.8939 47.4892 30.7017 47.7981C30.5163 48.107 30.252 48.3473 29.9088 48.5189C29.5655 48.6905 29.1674 48.7764 28.7143 48.7764H26.8298ZM26.0163 51.8347V44.6265H27.2005V51.8347H26.0163ZM29.9706 51.8347L27.4477 48.7043L28.5495 48.3027L31.4637 51.8347H29.9706ZM32.3931 51.8347V44.6265H33.5773V51.8347H32.3931ZM37.5687 51.8347L34.6545 44.6265H35.9417L38.2174 50.4651H37.7643L40.0607 44.6265H41.3273L38.3925 51.8347H37.5687ZM42.4115 51.8347V44.6265H43.5957V51.8347H42.4115ZM45.2083 51.8347V44.6265H46.0321L46.3925 45.9857V51.8347H45.2083ZM50.2026 51.8347L45.8879 46.202L46.0321 44.6265L50.3468 50.2592L50.2026 51.8347ZM50.2026 51.8347L49.8422 50.5681V44.6265H51.0264V51.8347H50.2026ZM55.895 51.9377C55.4008 51.9377 54.9339 51.8416 54.4946 51.6494C54.0552 51.4571 53.6708 51.1928 53.3413 50.8565C53.0117 50.5132 52.7509 50.1185 52.5587 49.6722C52.3733 49.2191 52.2806 48.7352 52.2806 48.2203C52.2806 47.7054 52.3733 47.2249 52.5587 46.7786C52.7509 46.3324 53.0117 45.9411 53.3413 45.6047C53.6777 45.2615 54.069 44.9972 54.5152 44.8118C54.9683 44.6196 55.4557 44.5235 55.9774 44.5235C56.5472 44.5235 57.0758 44.6333 57.5632 44.853C58.0507 45.0727 58.4591 45.385 58.7887 45.7901L57.9854 46.5933C57.7726 46.2912 57.4877 46.0612 57.1308 45.9033C56.7738 45.7386 56.3893 45.6562 55.9774 45.6562C55.4831 45.6562 55.0472 45.766 54.6696 45.9857C54.2989 46.1985 54.0106 46.4972 53.8047 46.8816C53.5987 47.266 53.4957 47.7123 53.4957 48.2203C53.4957 48.7283 53.5987 49.178 53.8047 49.5693C54.0175 49.9537 54.3024 50.2558 54.6593 50.4754C55.0163 50.6951 55.4214 50.805 55.8745 50.805C56.355 50.805 56.7669 50.7192 57.1102 50.5475C57.4603 50.369 57.728 50.1082 57.9134 49.7649C58.0987 49.4148 58.1914 48.9857 58.1914 48.4777L58.9328 49.0132H55.8539V47.932H59.4168V48.0967C59.4168 48.9548 59.2623 49.6688 58.9534 50.2386C58.6514 50.8084 58.236 51.234 57.7074 51.5155C57.1788 51.797 56.5747 51.9377 55.895 51.9377ZM64.768 51.9377C64.1982 51.9377 63.7142 51.8347 63.316 51.6288C62.9179 51.4228 62.5609 51.1208 62.2451 50.7226L63.0483 49.9194C63.2474 50.2077 63.4842 50.4343 63.7588 50.599C64.0334 50.7569 64.3835 50.8359 64.8092 50.8359C65.2073 50.8359 65.5231 50.7535 65.7565 50.5887C65.9968 50.424 66.1169 50.1974 66.1169 49.9091C66.1169 49.6688 66.0552 49.4732 65.9316 49.3221C65.808 49.1711 65.6433 49.0475 65.4373 48.9514C65.2382 48.8484 65.0151 48.7592 64.768 48.6837C64.5277 48.6013 64.284 48.512 64.0368 48.4159C63.7966 48.313 63.5735 48.186 63.3675 48.0349C63.1684 47.8839 63.0071 47.6882 62.8835 47.448C62.76 47.2077 62.6982 46.9022 62.6982 46.5315C62.6982 46.1059 62.8011 45.7454 63.0071 45.4503C63.2199 45.1482 63.5048 44.9182 63.8618 44.7603C64.2188 44.6024 64.6169 44.5235 65.0563 44.5235C65.53 44.5235 65.9522 44.6162 66.3229 44.8015C66.7005 44.9869 67.006 45.2237 67.2394 45.512L66.4362 46.3152C66.2302 46.0818 66.014 45.9102 65.7874 45.8004C65.5677 45.6837 65.3137 45.6253 65.0254 45.6253C64.6684 45.6253 64.387 45.6974 64.181 45.8416C63.9819 45.9857 63.8824 46.1882 63.8824 46.4491C63.8824 46.6688 63.9442 46.8473 64.0677 46.9846C64.1913 47.115 64.3526 47.2283 64.5517 47.3244C64.7577 47.4136 64.9808 47.4995 65.2211 47.5818C65.4682 47.6642 65.7119 47.7569 65.9522 47.8599C66.1993 47.9628 66.4224 48.0967 66.6215 48.2615C66.8275 48.4194 66.9922 48.6253 67.1158 48.8793C67.2394 49.1333 67.3012 49.4526 67.3012 49.837C67.3012 50.4823 67.0712 50.9938 66.6112 51.3713C66.1581 51.7489 65.5437 51.9377 64.768 51.9377ZM71.8684 51.9377C71.3466 51.9377 70.8626 51.845 70.4164 51.6597C69.977 51.4674 69.5926 51.2031 69.2631 50.8667C68.9336 50.5235 68.6796 50.1288 68.5011 49.6825C68.3226 49.2294 68.2333 48.7455 68.2333 48.2306C68.2333 47.7157 68.3226 47.2352 68.5011 46.7889C68.6796 46.3358 68.9336 45.9411 69.2631 45.6047C69.5926 45.2683 69.977 45.004 70.4164 44.8118C70.8626 44.6196 71.3466 44.5235 71.8684 44.5235C72.4519 44.5235 72.9565 44.6196 73.3821 44.8118C73.8077 45.004 74.1853 45.2649 74.5148 45.5944L73.7116 46.3976C73.4988 46.1642 73.2379 45.9823 72.929 45.8519C72.6269 45.7214 72.2734 45.6562 71.8684 45.6562C71.5114 45.6562 71.1853 45.718 70.8901 45.8416C70.5949 45.9651 70.3375 46.1436 70.1178 46.377C69.905 46.6036 69.7402 46.8747 69.6235 47.1905C69.5068 47.5063 69.4484 47.853 69.4484 48.2306C69.4484 48.6082 69.5068 48.9548 69.6235 49.2706C69.7402 49.5864 69.905 49.861 70.1178 50.0944C70.3375 50.321 70.5949 50.496 70.8901 50.6196C71.1853 50.7432 71.5114 50.805 71.8684 50.805C72.3077 50.805 72.6784 50.7397 72.9805 50.6093C73.2894 50.472 73.5503 50.2867 73.7631 50.0532L74.5663 50.8565C74.2368 51.1928 73.8489 51.4571 73.4027 51.6494C72.9565 51.8416 72.445 51.9377 71.8684 51.9377ZM75.6745 51.8347V44.6265H76.8587V51.8347H75.6745ZM80.2569 51.8347V44.6265H81.4411V51.8347H80.2569ZM76.488 48.6425V47.5612H80.5143V48.6425H76.488ZM86.3727 51.9377C85.8579 51.9377 85.3773 51.8416 84.9311 51.6494C84.4849 51.4571 84.0936 51.1928 83.7572 50.8565C83.4208 50.5132 83.1565 50.1185 82.9643 49.6722C82.7789 49.2191 82.6862 48.7352 82.6862 48.2203C82.6862 47.7054 82.7789 47.2249 82.9643 46.7786C83.1565 46.3324 83.4173 45.9411 83.7469 45.6047C84.0833 45.2615 84.4711 44.9972 84.9105 44.8118C85.3567 44.6196 85.8373 44.5235 86.3521 44.5235C86.867 44.5235 87.3441 44.6196 87.7835 44.8118C88.2297 44.9972 88.621 45.2615 88.9574 45.6047C89.2938 45.9411 89.5547 46.3358 89.74 46.7889C89.9322 47.2352 90.0284 47.7157 90.0284 48.2306C90.0284 48.7455 89.9322 49.2294 89.74 49.6825C89.5547 50.1288 89.2938 50.5201 88.9574 50.8565C88.6279 51.1928 88.24 51.4571 87.7938 51.6494C87.3544 51.8416 86.8807 51.9377 86.3727 51.9377ZM86.3521 50.805C86.8396 50.805 87.2652 50.6951 87.629 50.4754C87.9997 50.2558 88.2881 49.9537 88.494 49.5693C88.7068 49.178 88.8132 48.7283 88.8132 48.2203C88.8132 47.8427 88.7515 47.4995 88.6279 47.1905C88.5112 46.8747 88.343 46.6036 88.1233 46.377C87.9036 46.1436 87.6428 45.9651 87.3407 45.8416C87.0455 45.718 86.716 45.6562 86.3521 45.6562C85.8716 45.6562 85.446 45.766 85.0752 45.9857C84.7114 46.1985 84.4231 46.4972 84.2103 46.8816C84.0043 47.266 83.9013 47.7123 83.9013 48.2203C83.9013 48.5979 83.9597 48.948 84.0764 49.2706C84.2 49.5864 84.3682 49.8576 84.581 50.0841C84.8006 50.3107 85.0615 50.4892 85.3636 50.6196C85.6656 50.7432 85.9952 50.805 86.3521 50.805ZM94.6803 51.9377C94.1655 51.9377 93.6849 51.8416 93.2387 51.6494C92.7925 51.4571 92.4012 51.1928 92.0648 50.8565C91.7284 50.5132 91.4641 50.1185 91.2719 49.6722C91.0865 49.2191 90.9938 48.7352 90.9938 48.2203C90.9938 47.7054 91.0865 47.2249 91.2719 46.7786C91.4641 46.3324 91.7249 45.9411 92.0545 45.6047C92.3909 45.2615 92.7787 44.9972 93.2181 44.8118C93.6643 44.6196 94.1449 44.5235 94.6597 44.5235C95.1746 44.5235 95.6517 44.6196 96.0911 44.8118C96.5373 44.9972 96.9286 45.2615 97.265 45.6047C97.6014 45.9411 97.8623 46.3358 98.0476 46.7889C98.2398 47.2352 98.336 47.7157 98.336 48.2306C98.336 48.7455 98.2398 49.2294 98.0476 49.6825C97.8623 50.1288 97.6014 50.5201 97.265 50.8565C96.9355 51.1928 96.5476 51.4571 96.1014 51.6494C95.662 51.8416 95.1883 51.9377 94.6803 51.9377ZM94.6597 50.805C95.1472 50.805 95.5728 50.6951 95.9366 50.4754C96.3073 50.2558 96.5957 49.9537 96.8016 49.5693C97.0144 49.178 97.1209 48.7283 97.1209 48.2203C97.1209 47.8427 97.0591 47.4995 96.9355 47.1905C96.8188 46.8747 96.6506 46.6036 96.4309 46.377C96.2112 46.1436 95.9504 45.9651 95.6483 45.8416C95.3531 45.718 95.0236 45.6562 94.6597 45.6562C94.1792 45.6562 93.7536 45.766 93.3829 45.9857C93.019 46.1985 92.7307 46.4972 92.5179 46.8816C92.3119 47.266 92.2089 47.7123 92.2089 48.2203C92.2089 48.5979 92.2673 48.948 92.384 49.2706C92.5076 49.5864 92.6758 49.8576 92.8886 50.0841C93.1082 50.3107 93.3691 50.4892 93.6712 50.6196C93.9732 50.7432 94.3028 50.805 94.6597 50.805ZM99.5917 51.8347V44.6265H100.776V51.8347H99.5917ZM100.405 51.8347V50.7535H104.174V51.8347H100.405Z" fill="white"/>
<rect x="17.4727" y="30.3088" width="2.16094" height="0.220661" fill="#323232"/>
<rect width="2.15968" height="0.220661" transform="matrix(0.960108 0.279631 -0.28543 0.9584 18.0771 26.0397)" fill="#323232"/>
<rect width="2.16069" height="0.220661" transform="matrix(0.992242 0.124318 -0.127078 0.991893 17.5693 28.8567)" fill="#323232"/>
<rect width="4.00135" height="0.220661" transform="matrix(0.949748 0.313017 -0.319365 0.947632 18.4883 24.6707)" fill="#323232"/>
<rect width="2.16026" height="0.220661" transform="matrix(0.978718 0.205212 -0.209639 0.977779 17.7832 27.3689)" fill="#323232"/>
<rect width="2.1585" height="0.220661" transform="matrix(0.920833 0.389957 -0.397378 0.917655 19.0381 23.2661)" fill="#323232"/>
<rect width="2.15748" height="0.220661" transform="matrix(0.885506 0.464628 -0.472786 0.881177 19.75 21.8865)" fill="#323232"/>
<rect width="2.15736" height="0.220661" transform="matrix(0.881394 0.472382 -0.480597 0.876942 20.3838 20.8042)" fill="#323232"/>
<rect width="2.1491" height="0.220661" transform="matrix(0.504323 0.863515 -0.868347 0.495957 29.0635 12.7009)" fill="#323232"/>
<rect width="4.36411" height="0.220088" transform="matrix(0.236977 0.968804 -0.975092 0.233254 32.9395 11.1654)" fill="#323232"/>
<rect width="2.15011" height="0.220397" transform="matrix(0.390536 0.919271 -0.924578 0.384125 30.2207 12.1393)" fill="#323232"/>
<rect width="2.15204" height="0.220027" transform="matrix(0.202251 0.976357 -0.982915 0.199118 34.3457 10.8328)" fill="#323232"/>
<rect width="2.15089" height="0.220232" transform="matrix(0.312166 0.947951 -0.953713 0.307135 31.6309 11.5781)" fill="#323232"/>
<rect width="2.15292" height="0.219897" transform="matrix(0.119758 0.989262 -0.996517 0.117975 35.8496 10.6006)" fill="#323232"/>
<rect width="2.1538" height="0.219787" transform="matrix(0.0361851 0.995322 -1.00335 0.0356721 37.4141 10.3733)" fill="#323232"/>
<rect width="2.1539" height="0.219776" transform="matrix(0.0272941 0.995558 -1.00367 0.0269094 38.6797 10.3733)" fill="#323232"/>
<rect width="2.14915" height="0.220661" transform="matrix(-0.507747 0.861506 -0.866393 -0.499363 50.3213 13.7867)" fill="#323232"/>
<rect width="2.14784" height="0.221241" transform="matrix(-0.73286 0.684251 -0.688737 -0.721391 53.7461 16.453)" fill="#323232"/>
<rect width="2.14838" height="0.220927" transform="matrix(-0.613165 0.791493 -0.796121 -0.603145 51.541 14.6006)" fill="#323232"/>
<rect width="2.14779" height="0.221303" transform="matrix(-0.756727 0.658189 -0.66265 -0.745049 54.7354 17.494)" fill="#323232"/>
<rect width="4.3503" height="0.221095" transform="matrix(-0.677238 0.738449 -0.742989 -0.66637 52.7334 15.5323)" fill="#323232"/>
<rect width="2.14778" height="0.221437" transform="matrix(-0.808999 0.593776 -0.598163 -0.796997 55.6855 18.6703)" fill="#323232"/>
<rect width="2.14792" height="0.22155" transform="matrix(-0.8558 0.52504 -0.529295 -0.843704 56.5322 19.9736)" fill="#323232"/>
<rect width="4.34561" height="0.221561" transform="matrix(-0.860421 0.517524 -0.521761 -0.848327 57.1592 21.0604)" fill="#323232"/>
<rect width="2.15681" height="0.220661" transform="matrix(0.861523 0.507718 -0.516145 0.856501 20.9551 19.9073)" fill="#323232"/>
<rect width="2.15817" height="0.220074" transform="matrix(0.681666 0.728038 -0.739494 0.677118 23.6846 16.5463)" fill="#323232"/>
<rect width="3.54978" height="0.22039" transform="matrix(0.790226 0.610827 -0.620861 0.785488 21.79 18.709)" fill="#323232"/>
<rect width="2.15822" height="0.220012" transform="matrix(0.655343 0.751442 -0.763104 0.650832 24.7471 15.5782)" fill="#323232"/>
<rect width="2.15795" height="0.220221" transform="matrix(0.736466 0.67354 -0.684407 0.731839 22.7432 17.5389)" fill="#323232"/>
<rect width="2.15826" height="0.219879" transform="matrix(0.590337 0.802763 -0.814746 0.585931 25.9453 14.6499)" fill="#323232"/>
<rect width="4.37376" height="0.219768" transform="matrix(0.521002 0.848798 -0.860876 0.516759 27.1465 13.7162)" fill="#323232"/>
<rect width="2.15814" height="0.219757" transform="matrix(0.513422 0.853348 -0.865423 0.5092 28.084 13.1522)" fill="#323232"/>
<rect width="4.35174" height="0.220661" transform="matrix(-0.0138245 0.999904 -0.999909 -0.0135196 39.749 10.451)" fill="#323232"/>
<rect width="2.14634" height="0.220679" transform="matrix(-0.298652 0.954449 -0.956154 -0.292585 44.1143 11.0936)" fill="#323232"/>
<rect width="2.14535" height="0.220669" transform="matrix(-0.140778 0.99008 -0.990433 -0.137722 41.2158 10.5665)" fill="#323232"/>
<rect width="2.14665" height="0.220681" transform="matrix(-0.332435 0.943224 -0.945333 -0.325828 45.4238 11.4601)" fill="#323232"/>
<rect width="2.14577" height="0.220675" transform="matrix(-0.223137 0.974851 -0.975791 -0.218425 42.7178 10.7981)" fill="#323232"/>
<rect width="4.35387" height="0.220685" transform="matrix(-0.410026 0.912196 -0.915357 -0.402371 46.833 11.993)" fill="#323232"/>
<rect width="2.14852" height="0.220689" transform="matrix(-0.484923 0.874702 -0.879001 -0.476557 48.1572 12.6061)" fill="#323232"/>
<rect width="2.14864" height="0.220689" transform="matrix(-0.492675 0.870361 -0.874782 -0.484254 49.3066 13.2112)" fill="#323232"/>
<rect width="2.15724" height="0.220661" transform="matrix(-0.877124 0.480264 -0.488534 -0.872545 57.6523 22.0007)" fill="#323232"/>
<rect width="2.15471" height="0.221231" transform="matrix(-0.979057 0.215746 -0.219253 -0.973026 59.2158 26.0251)" fill="#323232"/>
<rect width="2.15625" height="0.220923" transform="matrix(-0.931296 0.367466 -0.373723 -0.926261 58.2812 23.3176)" fill="#323232"/>
<rect width="4.35475" height="0.221293" transform="matrix(-0.98626 0.181481 -0.184388 -0.979951 59.5264 27.4202)" fill="#323232"/>
<rect width="2.15548" height="0.221088" transform="matrix(-0.959023 0.289983 -0.294826 -0.953531 58.8223 24.7214)" fill="#323232"/>
<rect width="2.15345" height="0.221423" transform="matrix(-0.998393 0.100122 -0.101659 -0.991361 59.7334 28.9119)" fill="#323232"/>
<rect width="2.15255" height="0.221533" transform="matrix(-1.00374 0.0177206 -0.0179789 -0.995903 59.9443 30.4082)" fill="#323232"/>
<rect width="2.15246" height="0.221543" transform="matrix(-1.0039 0.0089543 -0.00908406 -0.995978 59.9531 31.6726)" fill="#323232"/>
<path d="M61.0506 32.732C61.0506 26.7579 58.6774 21.0285 54.4531 16.8042C50.2288 12.5799 44.4994 10.2067 38.5253 10.2067C32.5512 10.2067 26.8218 12.5799 22.5975 16.8042C18.3732 21.0285 16 26.7579 16 32.732" stroke="#0583EA" stroke-width="2.5154"/>
<path d="M42.5056 14.1764L41.1505 28.9271L38.4429 28.4212L42.5056 14.1764Z" fill="#0583EA"/>
<mask id="path-53-outside-1_133_85" maskUnits="userSpaceOnUse" x="20.1494" y="23.7687" width="85" height="15" fill="black">
<rect fill="white" x="20.1494" y="23.7687" width="85" height="15"/>
<path d="M25.492 37.7687V25.6235H27.9105V37.7687H25.492ZM21.5378 27.4947V25.3587H31.8647V27.4947H21.5378ZM39.0303 37.9629C38.1241 37.9629 37.2768 37.7981 36.4883 37.4686C35.7115 37.1391 35.029 36.686 34.4405 36.1093C33.8639 35.5209 33.4108 34.8383 33.0813 34.0616C32.7517 33.2731 32.587 32.4316 32.587 31.5372C32.587 30.6428 32.7458 29.8131 33.0636 29.0481C33.3931 28.2714 33.8462 27.5947 34.4229 27.0181C35.0113 26.4296 35.6939 25.9765 36.4706 25.6588C37.2473 25.3293 38.0888 25.1645 38.995 25.1645C39.9129 25.1645 40.7603 25.3293 41.537 25.6588C42.3137 25.9765 42.9904 26.4296 43.5671 27.0181C44.1555 27.5947 44.6145 28.2714 44.944 29.0481C45.2735 29.8249 45.4383 30.6604 45.4383 31.5549C45.4383 32.4493 45.2735 33.2848 44.944 34.0616C44.6145 34.8383 44.1555 35.5209 43.5671 36.1093C42.9904 36.686 42.3137 37.1391 41.537 37.4686C40.772 37.7981 39.9365 37.9629 39.0303 37.9629ZM38.995 35.7209C39.7952 35.7209 40.4896 35.5444 41.078 35.1914C41.6664 34.8383 42.1254 34.3499 42.4549 33.7262C42.7962 33.1024 42.9669 32.3728 42.9669 31.5372C42.9669 30.9252 42.8727 30.3662 42.6844 29.8602C42.4961 29.3541 42.2255 28.9187 41.8724 28.5539C41.5193 28.1773 41.1016 27.8889 40.619 27.6889C40.1365 27.4888 39.5952 27.3888 38.995 27.3888C38.2182 27.3888 37.5298 27.5653 36.9296 27.9184C36.3412 28.2597 35.8763 28.7422 35.535 29.3659C35.2055 29.9896 35.0407 30.7134 35.0407 31.5372C35.0407 32.1609 35.1349 32.7317 35.3232 33.2495C35.5232 33.7674 35.7939 34.2087 36.1352 34.5735C36.4883 34.9383 36.906 35.2208 37.3886 35.4208C37.8828 35.6209 38.4183 35.7209 38.995 35.7209ZM49.548 33.1613V31.2018H52.4254C52.802 31.2018 53.1433 31.1253 53.4492 30.9723C53.7552 30.8193 53.9965 30.6016 54.173 30.3192C54.3495 30.0249 54.4378 29.6719 54.4378 29.26C54.4378 28.8598 54.3495 28.5127 54.173 28.2185C53.9965 27.9242 53.7552 27.7006 53.4492 27.5477C53.1433 27.3947 52.802 27.3182 52.4254 27.3182H49.548V25.3587H52.6725C53.461 25.3587 54.1671 25.5176 54.7909 25.8353C55.4264 26.1531 55.9265 26.6062 56.2914 27.1946C56.6562 27.7713 56.8386 28.4597 56.8386 29.26C56.8386 30.0602 56.6562 30.7546 56.2914 31.343C55.9265 31.9197 55.4264 32.3669 54.7909 32.6846C54.1671 33.0024 53.461 33.1613 52.6725 33.1613H49.548ZM47.7827 37.7687V25.3587H50.1835V37.7687H47.7827ZM69.3657 37.7687V25.6235H71.7841V37.7687H69.3657ZM65.4114 27.4947V25.3587H75.7384V27.4947H65.4114ZM77.8374 37.7687V25.3587H80.2382V37.7687H77.8374ZM83.2264 37.7687V25.3587H85.6272V37.7687H83.2264ZM84.9917 37.7687V35.6503H91.8586V37.7687H84.9917ZM84.9917 32.4552V30.4074H91.2408V32.4552H84.9917ZM84.9917 27.477V25.3587H91.7704V27.477H84.9917ZM96.0523 32.5787V30.7075H98.9297C99.5181 30.7075 99.9712 30.5604 100.289 30.2662C100.619 29.9602 100.783 29.5424 100.783 29.0128C100.783 28.5303 100.619 28.1302 100.289 27.8124C99.9712 27.4829 99.5181 27.3182 98.9297 27.3182H96.0523V25.3587H99.1416C99.9418 25.3587 100.642 25.5176 101.242 25.8353C101.854 26.1413 102.325 26.565 102.654 27.1063C102.996 27.6477 103.166 28.2714 103.166 28.9775C103.166 29.7072 102.996 30.3427 102.654 30.884C102.325 31.4136 101.854 31.8314 101.242 32.1374C100.63 32.4316 99.9183 32.5787 99.1062 32.5787H96.0523ZM94.287 37.7687V25.3587H96.6878V37.7687H94.287ZM101.066 37.7687L96.9702 32.4022L99.1769 31.7137L103.978 37.7687H101.066Z"/>
</mask>
<path d="M25.492 37.7687V25.6235H27.9105V37.7687H25.492ZM21.5378 27.4947V25.3587H31.8647V27.4947H21.5378ZM39.0303 37.9629C38.1241 37.9629 37.2768 37.7981 36.4883 37.4686C35.7115 37.1391 35.029 36.686 34.4405 36.1093C33.8639 35.5209 33.4108 34.8383 33.0813 34.0616C32.7517 33.2731 32.587 32.4316 32.587 31.5372C32.587 30.6428 32.7458 29.8131 33.0636 29.0481C33.3931 28.2714 33.8462 27.5947 34.4229 27.0181C35.0113 26.4296 35.6939 25.9765 36.4706 25.6588C37.2473 25.3293 38.0888 25.1645 38.995 25.1645C39.9129 25.1645 40.7603 25.3293 41.537 25.6588C42.3137 25.9765 42.9904 26.4296 43.5671 27.0181C44.1555 27.5947 44.6145 28.2714 44.944 29.0481C45.2735 29.8249 45.4383 30.6604 45.4383 31.5549C45.4383 32.4493 45.2735 33.2848 44.944 34.0616C44.6145 34.8383 44.1555 35.5209 43.5671 36.1093C42.9904 36.686 42.3137 37.1391 41.537 37.4686C40.772 37.7981 39.9365 37.9629 39.0303 37.9629ZM38.995 35.7209C39.7952 35.7209 40.4896 35.5444 41.078 35.1914C41.6664 34.8383 42.1254 34.3499 42.4549 33.7262C42.7962 33.1024 42.9669 32.3728 42.9669 31.5372C42.9669 30.9252 42.8727 30.3662 42.6844 29.8602C42.4961 29.3541 42.2255 28.9187 41.8724 28.5539C41.5193 28.1773 41.1016 27.8889 40.619 27.6889C40.1365 27.4888 39.5952 27.3888 38.995 27.3888C38.2182 27.3888 37.5298 27.5653 36.9296 27.9184C36.3412 28.2597 35.8763 28.7422 35.535 29.3659C35.2055 29.9896 35.0407 30.7134 35.0407 31.5372C35.0407 32.1609 35.1349 32.7317 35.3232 33.2495C35.5232 33.7674 35.7939 34.2087 36.1352 34.5735C36.4883 34.9383 36.906 35.2208 37.3886 35.4208C37.8828 35.6209 38.4183 35.7209 38.995 35.7209ZM49.548 33.1613V31.2018H52.4254C52.802 31.2018 53.1433 31.1253 53.4492 30.9723C53.7552 30.8193 53.9965 30.6016 54.173 30.3192C54.3495 30.0249 54.4378 29.6719 54.4378 29.26C54.4378 28.8598 54.3495 28.5127 54.173 28.2185C53.9965 27.9242 53.7552 27.7006 53.4492 27.5477C53.1433 27.3947 52.802 27.3182 52.4254 27.3182H49.548V25.3587H52.6725C53.461 25.3587 54.1671 25.5176 54.7909 25.8353C55.4264 26.1531 55.9265 26.6062 56.2914 27.1946C56.6562 27.7713 56.8386 28.4597 56.8386 29.26C56.8386 30.0602 56.6562 30.7546 56.2914 31.343C55.9265 31.9197 55.4264 32.3669 54.7909 32.6846C54.1671 33.0024 53.461 33.1613 52.6725 33.1613H49.548ZM47.7827 37.7687V25.3587H50.1835V37.7687H47.7827ZM69.3657 37.7687V25.6235H71.7841V37.7687H69.3657ZM65.4114 27.4947V25.3587H75.7384V27.4947H65.4114ZM77.8374 37.7687V25.3587H80.2382V37.7687H77.8374ZM83.2264 37.7687V25.3587H85.6272V37.7687H83.2264ZM84.9917 37.7687V35.6503H91.8586V37.7687H84.9917ZM84.9917 32.4552V30.4074H91.2408V32.4552H84.9917ZM84.9917 27.477V25.3587H91.7704V27.477H84.9917ZM96.0523 32.5787V30.7075H98.9297C99.5181 30.7075 99.9712 30.5604 100.289 30.2662C100.619 29.9602 100.783 29.5424 100.783 29.0128C100.783 28.5303 100.619 28.1302 100.289 27.8124C99.9712 27.4829 99.5181 27.3182 98.9297 27.3182H96.0523V25.3587H99.1416C99.9418 25.3587 100.642 25.5176 101.242 25.8353C101.854 26.1413 102.325 26.565 102.654 27.1063C102.996 27.6477 103.166 28.2714 103.166 28.9775C103.166 29.7072 102.996 30.3427 102.654 30.884C102.325 31.4136 101.854 31.8314 101.242 32.1374C100.63 32.4316 99.9183 32.5787 99.1062 32.5787H96.0523ZM94.287 37.7687V25.3587H96.6878V37.7687H94.287ZM101.066 37.7687L96.9702 32.4022L99.1769 31.7137L103.978 37.7687H101.066Z" fill="#0583EA"/>
<path d="M25.492 37.7687H25.092V38.1687H25.492V37.7687ZM25.492 25.6235V25.2235H25.092V25.6235H25.492ZM27.9105 25.6235H28.3105V25.2235H27.9105V25.6235ZM27.9105 37.7687V38.1687H28.3105V37.7687H27.9105ZM21.5378 27.4947H21.1378V27.8947H21.5378V27.4947ZM21.5378 25.3587V24.9587H21.1378V25.3587H21.5378ZM31.8647 25.3587H32.2647V24.9587H31.8647V25.3587ZM31.8647 27.4947V27.8947H32.2647V27.4947H31.8647ZM25.892 37.7687V25.6235H25.092V37.7687H25.892ZM25.492 26.0235H27.9105V25.2235H25.492V26.0235ZM27.5105 25.6235V37.7687H28.3105V25.6235H27.5105ZM27.9105 37.3687H25.492V38.1687H27.9105V37.3687ZM21.9378 27.4947V25.3587H21.1378V27.4947H21.9378ZM21.5378 25.7587H31.8647V24.9587H21.5378V25.7587ZM31.4647 25.3587V27.4947H32.2647V25.3587H31.4647ZM31.8647 27.0947H21.5378V27.8947H31.8647V27.0947ZM36.4883 37.4686L36.332 37.8368L36.334 37.8376L36.4883 37.4686ZM34.4405 36.1093L34.1548 36.3893L34.1606 36.395L34.4405 36.1093ZM33.0813 34.0616L32.7122 34.2158L32.713 34.2178L33.0813 34.0616ZM33.0636 29.0481L32.6954 28.8919L32.6942 28.8947L33.0636 29.0481ZM34.4229 27.0181L34.14 26.7352L34.4229 27.0181ZM36.4706 25.6588L36.6221 26.029L36.6268 26.027L36.4706 25.6588ZM41.537 25.6588L41.3808 26.0271L41.3855 26.029L41.537 25.6588ZM43.5671 27.0181L43.2813 27.2981L43.2871 27.3037L43.5671 27.0181ZM44.944 29.0481L45.3122 28.8919V28.8919L44.944 29.0481ZM44.944 34.0616L45.3122 34.2178V34.2178L44.944 34.0616ZM43.5671 36.1093L43.8499 36.3921L43.5671 36.1093ZM41.537 37.4686L41.3808 37.1003L41.3787 37.1012L41.537 37.4686ZM41.078 35.1914L40.8722 34.8484L41.078 35.1914ZM42.4549 33.7262L42.104 33.5341L42.1013 33.5393L42.4549 33.7262ZM42.6844 29.8602L43.0593 29.7207L42.6844 29.8602ZM41.8724 28.5539L41.5805 28.8275L41.585 28.832L41.8724 28.5539ZM40.619 27.6889L40.7722 27.3194L40.7722 27.3194L40.619 27.6889ZM36.9296 27.9184L37.1303 28.2644L37.1324 28.2631L36.9296 27.9184ZM35.535 29.3659L35.1841 29.1739L35.1813 29.1791L35.535 29.3659ZM35.3232 33.2495L34.9472 33.3863L34.9501 33.3937L35.3232 33.2495ZM36.1352 34.5735L35.8431 34.8468L35.8478 34.8517L36.1352 34.5735ZM37.3886 35.4208L37.2353 35.7904L37.2385 35.7916L37.3886 35.4208ZM39.0303 37.5629C38.1738 37.5629 37.3792 37.4074 36.6425 37.0995L36.334 37.8376C37.1743 38.1888 38.0744 38.3629 39.0303 38.3629V37.5629ZM36.6445 37.1003C35.9127 36.7899 35.2723 36.3644 34.7205 35.8236L34.1606 36.395C34.7856 37.0075 35.5104 37.4882 36.332 37.8368L36.6445 37.1003ZM34.7262 35.8293C34.1854 35.2775 33.76 34.6372 33.4495 33.9053L32.713 34.2178C33.0616 35.0394 33.5423 35.7643 34.1548 36.3893L34.7262 35.8293ZM33.4503 33.9073C33.1422 33.17 32.987 32.3812 32.987 31.5372H32.187C32.187 32.4821 32.3613 33.3762 32.7122 34.2158L33.4503 33.9073ZM32.987 31.5372C32.987 30.6912 33.137 29.9141 33.433 29.2016L32.6942 28.8947C32.3547 29.7121 32.187 30.5944 32.187 31.5372H32.987ZM33.4318 29.2044C33.742 28.4733 34.1666 27.84 34.7057 27.3009L34.14 26.7352C33.5258 27.3495 33.0442 28.0696 32.6954 28.8919L33.4318 29.2044ZM34.7057 27.3009C35.2563 26.7504 35.8941 26.3268 36.6221 26.029L36.3192 25.2886C35.4937 25.6263 34.7663 26.1089 34.14 26.7352L34.7057 27.3009ZM36.6268 26.027C37.3506 25.72 38.1384 25.5645 38.995 25.5645V24.7645C38.0391 24.7645 37.1441 24.9386 36.3144 25.2906L36.6268 26.027ZM38.995 25.5645C39.864 25.5645 40.6577 25.7202 41.3808 26.027L41.6932 25.2906C40.8629 24.9383 39.9618 24.7645 38.995 24.7645V25.5645ZM41.3855 26.029C42.1128 26.3265 42.7436 26.7493 43.2814 27.298L43.8528 26.7381C43.2372 26.11 42.5146 25.6266 41.6884 25.2886L41.3855 26.029ZM43.2871 27.3037C43.8369 27.8426 44.2663 28.475 44.5758 29.2044L45.3122 28.8919C44.9626 28.0678 44.4741 27.3469 43.847 26.7324L43.2871 27.3037ZM44.5758 29.2044C44.8831 29.9288 45.0383 30.7108 45.0383 31.5549H45.8383C45.8383 30.61 45.664 29.721 45.3122 28.8919L44.5758 29.2044ZM45.0383 31.5549C45.0383 32.3989 44.8831 33.181 44.5758 33.9053L45.3122 34.2178C45.664 33.3887 45.8383 32.4997 45.8383 31.5549H45.0383ZM44.5758 33.9053C44.266 34.6355 43.8358 35.2749 43.2842 35.8265L43.8499 36.3921C44.4752 35.7669 44.9629 35.0411 45.3122 34.2178L44.5758 33.9053ZM43.2842 35.8265C42.7452 36.3655 42.1119 36.7902 41.3808 37.1003L41.6932 37.8368C42.5156 37.4879 43.2357 37.0064 43.8499 36.3921L43.2842 35.8265ZM41.3787 37.1012C40.668 37.4074 39.8869 37.5629 39.0303 37.5629V38.3629C39.986 38.3629 40.876 38.1888 41.6952 37.8359L41.3787 37.1012ZM38.995 36.1209C39.8555 36.1209 40.6235 35.9305 41.2838 35.5344L40.8722 34.8484C40.3556 35.1583 39.7349 35.3209 38.995 35.3209V36.1209ZM41.2838 35.5344C41.9367 35.1426 42.446 34.5994 42.8086 33.913L42.1013 33.5393C41.8049 34.1004 41.3962 34.534 40.8722 34.8484L41.2838 35.5344ZM42.8058 33.9182C43.1846 33.226 43.3669 32.4281 43.3669 31.5372H42.5669C42.5669 32.3175 42.4079 32.9788 42.104 33.5342L42.8058 33.9182ZM43.3669 31.5372C43.3669 30.8839 43.2663 30.2769 43.0593 29.7207L42.3095 29.9997C42.4792 30.4556 42.5669 30.9666 42.5669 31.5372H43.3669ZM43.0593 29.7207C42.853 29.1662 42.5537 28.6827 42.1598 28.2757L41.585 28.832C41.8972 29.1547 42.1393 29.542 42.3095 29.9997L43.0593 29.7207ZM42.1642 28.2803C41.7718 27.8617 41.3066 27.5409 40.7722 27.3194L40.4658 28.0584C40.8965 28.2369 41.2669 28.4928 41.5806 28.8274L42.1642 28.2803ZM40.7722 27.3194C40.2345 27.0964 39.64 26.9888 38.995 26.9888V27.7888C39.5504 27.7888 40.0386 27.8812 40.4658 28.0584L40.7722 27.3194ZM38.995 26.9888C38.1554 26.9888 37.3953 27.1803 36.7268 27.5736L37.1324 28.2631C37.6642 27.9503 38.2811 27.7888 38.995 27.7888V26.9888ZM36.7289 27.5723C36.0743 27.952 35.5588 28.4891 35.1841 29.1739L35.8859 29.5579C36.1938 28.9952 36.608 28.5673 37.1303 28.2644L36.7289 27.5723ZM35.1813 29.1791C34.8167 29.8693 34.6407 30.6592 34.6407 31.5372H35.4407C35.4407 30.7676 35.5943 30.1099 35.8887 29.5527L35.1813 29.1791ZM34.6407 31.5372C34.6407 32.2015 34.7411 32.8192 34.9473 33.3862L35.6991 33.1128C35.5287 32.6442 35.4407 32.1204 35.4407 31.5372H34.6407ZM34.9501 33.3937C35.1665 33.954 35.4631 34.4405 35.8431 34.8468L36.4273 34.3002C36.1247 33.9768 35.8799 33.5807 35.6963 33.1054L34.9501 33.3937ZM35.8478 34.8517C36.24 35.2569 36.7038 35.5699 37.2354 35.7903L37.5418 35.0513C37.1083 34.8716 36.7366 34.6197 36.4226 34.2953L35.8478 34.8517ZM37.2385 35.7916C37.7842 36.0125 38.3711 36.1209 38.995 36.1209V35.3209C38.4655 35.3209 37.9815 35.2293 37.5386 35.0501L37.2385 35.7916ZM49.548 33.1613H49.148V33.5613H49.548V33.1613ZM49.548 31.2018V30.8018H49.148V31.2018H49.548ZM53.4492 30.9723L53.2704 30.6145L53.4492 30.9723ZM54.173 30.3192L54.5123 30.5312L54.516 30.525L54.173 30.3192ZM54.173 28.2185L53.83 28.4243V28.4243L54.173 28.2185ZM53.4492 27.5477L53.6281 27.1899L53.6281 27.1899L53.4492 27.5477ZM49.548 27.3182H49.148V27.7182H49.548V27.3182ZM49.548 25.3587V24.9587H49.148V25.3587H49.548ZM54.7909 25.8353L54.6093 26.1917L54.612 26.1931L54.7909 25.8353ZM56.2914 27.1946L55.9514 27.4054L55.9533 27.4084L56.2914 27.1946ZM56.2914 31.343L56.6294 31.5569L56.6313 31.5538L56.2914 31.343ZM54.7909 32.6846L54.612 32.3269L54.6093 32.3282L54.7909 32.6846ZM47.7827 37.7687H47.3827V38.1687H47.7827V37.7687ZM47.7827 25.3587V24.9587H47.3827V25.3587H47.7827ZM50.1835 25.3587H50.5835V24.9587H50.1835V25.3587ZM50.1835 37.7687V38.1687H50.5835V37.7687H50.1835ZM49.948 33.1613V31.2018H49.148V33.1613H49.948ZM49.548 31.6018H52.4254V30.8018H49.548V31.6018ZM52.4254 31.6018C52.8577 31.6018 53.2612 31.5136 53.6281 31.3301L53.2704 30.6145C53.0253 30.7371 52.7462 30.8018 52.4254 30.8018V31.6018ZM53.6281 31.3301C53.9981 31.1451 54.2956 30.8778 54.5122 30.5312L53.8338 30.1072C53.6974 30.3254 53.5124 30.4935 53.2704 30.6145L53.6281 31.3301ZM54.516 30.525C54.7367 30.1571 54.8378 29.7298 54.8378 29.26H54.0378C54.0378 29.614 53.9624 29.8927 53.83 30.1134L54.516 30.525ZM54.8378 29.26C54.8378 28.7996 54.7357 28.3787 54.516 28.0127L53.83 28.4243C53.9634 28.6466 54.0378 28.9201 54.0378 29.26H54.8378ZM54.516 28.0127C54.3005 27.6534 54.0024 27.377 53.6281 27.1899L53.2704 27.9054C53.5081 28.0243 53.6925 28.1951 53.83 28.4243L54.516 28.0127ZM53.6281 27.1899C53.2612 27.0064 52.8577 26.9182 52.4254 26.9182V27.7182C52.7462 27.7182 53.0253 27.7829 53.2704 27.9054L53.6281 27.1899ZM52.4254 26.9182H49.548V27.7182H52.4254V26.9182ZM49.948 27.3182V25.3587H49.148V27.3182H49.948ZM49.548 25.7587H52.6725V24.9587H49.548V25.7587ZM52.6725 25.7587C53.406 25.7587 54.0486 25.9061 54.6093 26.1917L54.9724 25.4789C54.2857 25.1291 53.5161 24.9587 52.6725 24.9587V25.7587ZM54.612 26.1931C55.183 26.4786 55.6267 26.8816 55.9514 27.4054L56.6313 26.9838C56.2264 26.3307 55.6697 25.8275 54.9697 25.4775L54.612 26.1931ZM55.9533 27.4084C56.2711 27.9107 56.4386 28.5221 56.4386 29.26H57.2386C57.2386 28.3973 57.0413 27.6318 56.6294 26.9807L55.9533 27.4084ZM56.4386 29.26C56.4386 29.9976 56.2712 30.6165 55.9514 31.1322L56.6313 31.5538C57.0412 30.8927 57.2386 30.1229 57.2386 29.26H56.4386ZM55.9533 31.1292C55.6291 31.6417 55.1851 32.0403 54.612 32.3269L54.9697 33.0424C55.6676 32.6935 56.224 32.1977 56.6294 31.5569L55.9533 31.1292ZM54.6093 32.3282C54.0486 32.6139 53.406 32.7613 52.6725 32.7613V33.5613C53.5161 33.5613 54.2857 33.3909 54.9724 33.0411L54.6093 32.3282ZM52.6725 32.7613H49.548V33.5613H52.6725V32.7613ZM48.1827 37.7687V25.3587H47.3827V37.7687H48.1827ZM47.7827 25.7587H50.1835V24.9587H47.7827V25.7587ZM49.7835 25.3587V37.7687H50.5835V25.3587H49.7835ZM50.1835 37.3687H47.7827V38.1687H50.1835V37.3687ZM69.3657 37.7687H68.9657V38.1687H69.3657V37.7687ZM69.3657 25.6235V25.2235H68.9657V25.6235H69.3657ZM71.7841 25.6235H72.1841V25.2235H71.7841V25.6235ZM71.7841 37.7687V38.1687H72.1841V37.7687H71.7841ZM65.4114 27.4947H65.0114V27.8947H65.4114V27.4947ZM65.4114 25.3587V24.9587H65.0114V25.3587H65.4114ZM75.7384 25.3587H76.1384V24.9587H75.7384V25.3587ZM75.7384 27.4947V27.8947H76.1384V27.4947H75.7384ZM69.7657 37.7687V25.6235H68.9657V37.7687H69.7657ZM69.3657 26.0235H71.7841V25.2235H69.3657V26.0235ZM71.3841 25.6235V37.7687H72.1841V25.6235H71.3841ZM71.7841 37.3687H69.3657V38.1687H71.7841V37.3687ZM65.8114 27.4947V25.3587H65.0114V27.4947H65.8114ZM65.4114 25.7587H75.7384V24.9587H65.4114V25.7587ZM75.3384 25.3587V27.4947H76.1384V25.3587H75.3384ZM75.7384 27.0947H65.4114V27.8947H75.7384V27.0947ZM77.8374 37.7687H77.4374V38.1687H77.8374V37.7687ZM77.8374 25.3587V24.9587H77.4374V25.3587H77.8374ZM80.2382 25.3587H80.6382V24.9587H80.2382V25.3587ZM80.2382 37.7687V38.1687H80.6382V37.7687H80.2382ZM78.2374 37.7687V25.3587H77.4374V37.7687H78.2374ZM77.8374 25.7587H80.2382V24.9587H77.8374V25.7587ZM79.8382 25.3587V37.7687H80.6382V25.3587H79.8382ZM80.2382 37.3687H77.8374V38.1687H80.2382V37.3687ZM83.2264 37.7687H82.8264V38.1687H83.2264V37.7687ZM83.2264 25.3587V24.9587H82.8264V25.3587H83.2264ZM85.6272 25.3587H86.0272V24.9587H85.6272V25.3587ZM85.6272 37.7687V38.1687H86.0272V37.7687H85.6272ZM84.9917 37.7687H84.5917V38.1687H84.9917V37.7687ZM84.9917 35.6503V35.2503H84.5917V35.6503H84.9917ZM91.8586 35.6503H92.2586V35.2503H91.8586V35.6503ZM91.8586 37.7687V38.1687H92.2586V37.7687H91.8586ZM84.9917 32.4552H84.5917V32.8552H84.9917V32.4552ZM84.9917 30.4074V30.0074H84.5917V30.4074H84.9917ZM91.2408 30.4074H91.6408V30.0074H91.2408V30.4074ZM91.2408 32.4552V32.8552H91.6408V32.4552H91.2408ZM84.9917 27.477H84.5917V27.877H84.9917V27.477ZM84.9917 25.3587V24.9587H84.5917V25.3587H84.9917ZM91.7704 25.3587H92.1704V24.9587H91.7704V25.3587ZM91.7704 27.477V27.877H92.1704V27.477H91.7704ZM83.6264 37.7687V25.3587H82.8264V37.7687H83.6264ZM83.2264 25.7587H85.6272V24.9587H83.2264V25.7587ZM85.2272 25.3587V37.7687H86.0272V25.3587H85.2272ZM85.6272 37.3687H83.2264V38.1687H85.6272V37.3687ZM85.3917 37.7687V35.6503H84.5917V37.7687H85.3917ZM84.9917 36.0503H91.8586V35.2503H84.9917V36.0503ZM91.4586 35.6503V37.7687H92.2586V35.6503H91.4586ZM91.8586 37.3687H84.9917V38.1687H91.8586V37.3687ZM85.3917 32.4552V30.4074H84.5917V32.4552H85.3917ZM84.9917 30.8074H91.2408V30.0074H84.9917V30.8074ZM90.8408 30.4074V32.4552H91.6408V30.4074H90.8408ZM91.2408 32.0552H84.9917V32.8552H91.2408V32.0552ZM85.3917 27.477V25.3587H84.5917V27.477H85.3917ZM84.9917 25.7587H91.7704V24.9587H84.9917V25.7587ZM91.3704 25.3587V27.477H92.1704V25.3587H91.3704ZM91.7704 27.077H84.9917V27.877H91.7704V27.077ZM96.0523 32.5787H95.6523V32.9787H96.0523V32.5787ZM96.0523 30.7075V30.3075H95.6523V30.7075H96.0523ZM100.289 30.2662L100.561 30.5597L100.561 30.5593L100.289 30.2662ZM100.289 27.8124L100.001 28.0901L100.006 28.0953L100.011 28.1004L100.289 27.8124ZM96.0523 27.3182H95.6523V27.7182H96.0523V27.3182ZM96.0523 25.3587V24.9587H95.6523V25.3587H96.0523ZM101.242 25.8353L101.055 26.1889L101.063 26.1931L101.242 25.8353ZM102.654 27.1063L102.313 27.3143L102.316 27.3196L102.654 27.1063ZM102.654 30.884L102.316 30.6707L102.315 30.6727L102.654 30.884ZM101.242 32.1374L101.416 32.4979L101.421 32.4952L101.242 32.1374ZM94.287 37.7687H93.887V38.1687H94.287V37.7687ZM94.287 25.3587V24.9587H93.887V25.3587H94.287ZM96.6878 25.3587H97.0878V24.9587H96.6878V25.3587ZM96.6878 37.7687V38.1687H97.0878V37.7687H96.6878ZM101.066 37.7687L100.748 38.0113L100.868 38.1687H101.066V37.7687ZM96.9702 32.4022L96.8511 32.0204L96.3056 32.1906L96.6523 32.6449L96.9702 32.4022ZM99.1769 31.7137L99.4903 31.4652L99.3197 31.2501L99.0577 31.3319L99.1769 31.7137ZM103.978 37.7687V38.1687H104.806L104.292 37.5201L103.978 37.7687ZM96.4523 32.5787V30.7075H95.6523V32.5787H96.4523ZM96.0523 31.1075H98.9297V30.3075H96.0523V31.1075ZM98.9297 31.1075C99.5822 31.1075 100.146 30.9438 100.561 30.5597L100.017 29.9727C99.7965 30.177 99.4541 30.3075 98.9297 30.3075V31.1075ZM100.561 30.5593C100.987 30.1641 101.183 29.6321 101.183 29.0128H100.383C100.383 29.4527 100.25 29.7563 100.017 29.9731L100.561 30.5593ZM101.183 29.0128C101.183 28.4283 100.979 27.9221 100.567 27.5245L100.011 28.1004C100.258 28.3383 100.383 28.6324 100.383 29.0128H101.183ZM100.577 27.5348C100.164 27.1064 99.5941 26.9182 98.9297 26.9182V27.7182C99.4422 27.7182 99.7787 27.8595 100.001 28.0901L100.577 27.5348ZM98.9297 26.9182H96.0523V27.7182H98.9297V26.9182ZM96.4523 27.3182V25.3587H95.6523V27.3182H96.4523ZM96.0523 25.7587H99.1416V24.9587H96.0523V25.7587ZM99.1416 25.7587C99.8882 25.7587 100.522 25.9066 101.055 26.1888L101.429 25.4818C100.762 25.1285 99.9954 24.9587 99.1416 24.9587V25.7587ZM101.063 26.1931C101.614 26.4682 102.025 26.8423 102.313 27.3143L102.996 26.8984C102.624 26.2876 102.095 25.8144 101.421 25.4775L101.063 26.1931ZM102.316 27.3196C102.613 27.7906 102.766 28.3388 102.766 28.9775H103.566C103.566 28.204 103.379 27.5047 102.993 26.893L102.316 27.3196ZM102.766 28.9775C102.766 29.6425 102.612 30.2018 102.316 30.6707L102.993 31.0974C103.38 30.4836 103.566 29.7718 103.566 28.9775H102.766ZM102.315 30.6727C102.028 31.1336 101.616 31.5034 101.063 31.7796L101.421 32.4952C102.093 32.1595 102.622 31.6937 102.994 31.0954L102.315 30.6727ZM101.069 31.7769C100.521 32.0405 99.8699 32.1787 99.1062 32.1787V32.9787C99.9667 32.9787 100.74 32.8227 101.416 32.4979L101.069 31.7769ZM99.1062 32.1787H96.0523V32.9787H99.1062V32.1787ZM94.687 37.7687V25.3587H93.887V37.7687H94.687ZM94.287 25.7587H96.6878V24.9587H94.287V25.7587ZM96.2878 25.3587V37.7687H97.0878V25.3587H96.2878ZM96.6878 37.3687H94.287V38.1687H96.6878V37.3687ZM101.384 37.526L97.2882 32.1595L96.6523 32.6449L100.748 38.0113L101.384 37.526ZM97.0894 32.784L99.296 32.0956L99.0577 31.3319L96.8511 32.0204L97.0894 32.784ZM98.8634 31.9623L103.665 38.0172L104.292 37.5201L99.4903 31.4652L98.8634 31.9623ZM103.978 37.3687H101.066V38.1687H103.978V37.3687Z" fill="white" mask="url(#path-53-outside-1_133_85)"/>
<circle cx="38.9264" cy="31.5593" r="4.2548" transform="rotate(-60 38.9264 31.5593)" fill="black" stroke="white" stroke-width="1.22099"/>
<rect x="0.75" y="0.75" width="119.649" height="61.5744" rx="3.25" stroke="#0583EA" stroke-width="1.5"/>
</svg>
