<svg width="16" height="16" viewBox="0 0 16 16" fill="none" xmlns="http://www.w3.org/2000/svg">
<g clip-path="url(#clip0_752_520)">
<g clip-path="url(#clip1_752_520)">
<path d="M13.9265 1.3375L13.9971 1.3335L14.0838 1.33883L14.1438 1.3495L14.2258 1.37283L14.2971 1.4035L14.3638 1.4415L14.4238 1.48616L14.4785 1.53616L14.5131 1.5755L14.5678 1.65283L14.6025 1.71683C14.6338 1.7835 14.6538 1.85416 14.6625 1.9275L14.6658 1.99816C14.6658 2.04816 14.6605 2.0975 14.6498 2.14483L14.6265 2.22683L10.2718 14.2782C10.1893 14.4579 10.0569 14.6101 9.89037 14.7168C9.72386 14.8235 9.53024 14.8802 9.33247 14.8802C9.15436 14.8807 8.97914 14.8352 8.82387 14.7479C8.6686 14.6606 8.53858 14.5346 8.44647 14.3822L8.40314 14.2975L6.16847 9.8295L1.72181 7.6055C1.55727 7.53025 1.41538 7.41312 1.31032 7.26582C1.20526 7.11853 1.14072 6.94623 1.12314 6.76616L1.11914 6.66683C1.11914 6.2935 1.31981 5.95216 1.67981 5.7535L1.77314 5.70683L13.7845 1.3695L13.8551 1.3495L13.9265 1.3375Z" fill="#0583EA"/>
</g>
</g>
<defs>
<clipPath id="clip0_752_520">
<rect width="16" height="16" fill="white"/>
</clipPath>
<clipPath id="clip1_752_520">
<rect width="16" height="16" fill="white"/>
</clipPath>
</defs>
</svg>
